<?xml version="1.0" encoding="UTF-8" standalone="no"?>
<!DOCTYPE svg PUBLIC "-//W3C//DTD SVG 1.0//EN" "http://www.w3.org/TR/2001/PR-SVG-20010719/DTD/svg10.dtd">
<svg width="23cm" height="27cm" viewBox="73 -86 456 528" xmlns="http://www.w3.org/2000/svg" xmlns:xlink="http://www.w3.org/1999/xlink">
  <g>
    <ellipse style="fill: #ffffff" cx="134.554" cy="174.554" rx="60.1249" ry="60.1249"/>
    <ellipse style="fill: none; fill-opacity:0; stroke-width: 2; stroke: #000000" cx="134.554" cy="174.554" rx="60.1249" ry="60.1249"/>
    <text font-size="27.0933" style="fill: #000000;text-anchor:middle;font-family:sans-serif;font-style:normal;font-weight:normal" x="134.554" y="182.771">
      <tspan x="134.554" y="182.771">Source</tspan>
    </text>
  </g>
  <g>
    <ellipse style="fill: #ffffff" cx="304.672" cy="104.672" rx="67.7771" ry="67.7771"/>
    <ellipse style="fill: none; fill-opacity:0; stroke-width: 2; stroke: #000000" cx="304.672" cy="104.672" rx="67.7771" ry="67.7771"/>
    <text font-size="27.0933" style="fill: #000000;text-anchor:middle;font-family:sans-serif;font-style:normal;font-weight:normal" x="304.672" y="95.9552">
      <tspan x="304.672" y="95.9552">Hyper-</tspan>
      <tspan x="304.672" y="129.822">text</tspan>
    </text>
  </g>
  <g>
    <ellipse style="fill: #ffffff" cx="311.021" cy="251.021" rx="55.8343" ry="55.8343"/>
    <ellipse style="fill: none; fill-opacity:0; stroke-width: 2; stroke: #000000" cx="311.021" cy="251.021" rx="55.8343" ry="55.8343"/>
    <text font-size="27.0933" style="fill: #000000;text-anchor:middle;font-family:sans-serif;font-style:normal;font-weight:normal" x="311.021" y="259.238">
      <tspan x="311.021" y="259.238">Linear</tspan>
    </text>
  </g>
  <g>
    <ellipse style="fill: #ffffff" cx="462.621" cy="42.6209" rx="45.505" ry="45.505"/>
    <ellipse style="fill: none; fill-opacity:0; stroke-width: 2; stroke: #000000" cx="462.621" cy="42.6209" rx="45.505" ry="45.505"/>
    <text font-size="27.0933" style="fill: #000000;text-anchor:middle;font-family:sans-serif;font-style:normal;font-weight:normal" x="462.621" y="50.8376">
      <tspan x="462.621" y="50.8376">Web</tspan>
    </text>
  </g>
  <g>
    <ellipse style="fill: #ffffff" cx="463.009" cy="143.009" rx="45.9916" ry="45.9916"/>
    <ellipse style="fill: none; fill-opacity:0; stroke-width: 2; stroke: #000000" cx="463.009" cy="143.009" rx="45.9916" ry="45.9916"/>
    <text font-size="27.0933" style="fill: #000000;text-anchor:middle;font-family:sans-serif;font-style:normal;font-weight:normal" x="463.009" y="151.226">
      <tspan x="463.009" y="151.226">Help</tspan>
    </text>
  </g>
  <g>
    <ellipse style="fill: #ffffff" cx="468.858" cy="248.858" rx="53.0124" ry="53.0124"/>
    <ellipse style="fill: none; fill-opacity:0; stroke-width: 2; stroke: #000000" cx="468.858" cy="248.858" rx="53.0124" ry="53.0124"/>
    <text font-size="27.0933" style="fill: #000000;text-anchor:middle;font-family:sans-serif;font-style:normal;font-weight:normal" x="468.858" y="257.074">
      <tspan x="468.858" y="257.074">Paper</tspan>
    </text>
  </g>
  <g>
    <ellipse style="fill: #ffffff" cx="471.938" cy="371.938" rx="55.975" ry="55.975"/>
    <ellipse style="fill: none; fill-opacity:0; stroke-width: 2; stroke: #000000" cx="471.938" cy="371.938" rx="55.975" ry="55.975"/>
    <text font-size="27.0933" style="fill: #000000;text-anchor:middle;font-family:sans-serif;font-style:normal;font-weight:normal" x="471.938" y="380.154">
      <tspan x="471.938" y="380.154">EBook</tspan>
    </text>
  </g>
  <g>
    <line style="fill: none; fill-opacity:0; stroke-width: 2; stroke: #000000" x1="173.13" y1="135.979" x2="228.337" y2="122.839"/>
    <polygon style="fill: #000000" points="235.634,121.103 227.063,128.282 228.337,122.839 224.748,118.554 "/>
    <polygon style="fill: none; fill-opacity:0; stroke-width: 2; stroke: #000000" points="235.634,121.103 227.063,128.282 228.337,122.839 224.748,118.554 "/>
  </g>
  <g>
    <line style="fill: none; fill-opacity:0; stroke-width: 2; stroke: #000000" x1="368.694" y1="79.5205" x2="410.283" y2="63.1821"/>
    <polygon style="fill: #000000" points="417.264,60.4397 409.784,68.7499 410.283,63.1821 406.128,59.4424 "/>
    <polygon style="fill: none; fill-opacity:0; stroke-width: 2; stroke: #000000" points="417.264,60.4397 409.784,68.7499 410.283,63.1821 406.128,59.4424 "/>
  </g>
  <g>
    <line style="fill: none; fill-opacity:0; stroke-width: 2; stroke: #000000" x1="371.849" y1="117.064" x2="413.699" y2="124.784"/>
    <polygon style="fill: #000000" points="421.075,126.145 410.334,129.248 413.699,124.784 412.148,119.414 "/>
    <polygon style="fill: none; fill-opacity:0; stroke-width: 2; stroke: #000000" points="421.075,126.145 410.334,129.248 413.699,124.784 412.148,119.414 "/>
  </g>
  <g>
    <line style="fill: none; fill-opacity:0; stroke-width: 2; stroke: #000000" x1="173.13" y1="213.13" x2="246.894" y2="233.4"/>
    <polygon style="fill: #000000" points="254.126,235.387 243.159,237.559 246.894,233.4 245.808,227.916 "/>
    <polygon style="fill: none; fill-opacity:0; stroke-width: 2; stroke: #000000" points="254.126,235.387 243.159,237.559 246.894,233.4 245.808,227.916 "/>
  </g>
  <g>
    <line style="fill: none; fill-opacity:0; stroke-width: 2; stroke: #000000" x1="367.84" y1="250.242" x2="405.136" y2="249.731"/>
    <polygon style="fill: #000000" points="412.635,249.628 402.705,254.765 405.136,249.731 402.568,244.766 "/>
    <polygon style="fill: none; fill-opacity:0; stroke-width: 2; stroke: #000000" points="412.635,249.628 402.705,254.765 405.136,249.731 402.568,244.766 "/>
  </g>
  <g>
    <line style="fill: none; fill-opacity:0; stroke-width: 2; stroke: #000000" x1="356.461" y1="285.166" x2="418.612" y2="331.867"/>
    <polygon style="fill: #000000" points="424.607,336.373 413.609,334.363 418.612,331.867 419.617,326.368 "/>
    <polygon style="fill: none; fill-opacity:0; stroke-width: 2; stroke: #000000" points="424.607,336.373 413.609,334.363 418.612,331.867 419.617,326.368 "/>
  </g>
  <line style="fill: none; fill-opacity:0; stroke-width: 4; stroke: #7f7f7f" x1="220" y1="-80" x2="220" y2="440"/>
  <line style="fill: none; fill-opacity:0; stroke-width: 4; stroke: #7f7f7f" x1="380" y1="-80" x2="380" y2="440"/>
  <text font-size="27.0933" style="fill: #000000;text-anchor:start;font-family:sans-serif;font-style:normal;font-weight:normal" x="100" y="-60">
    <tspan x="100" y="-60">Subject </tspan>
    <tspan x="100" y="-26.1333">Domain</tspan>
  </text>
  <text font-size="27.0933" style="fill: #000000;text-anchor:start;font-family:sans-serif;font-style:normal;font-weight:normal" x="240" y="-60">
    <tspan x="240" y="-60">Document </tspan>
    <tspan x="240" y="-26.1333">Domain</tspan>
  </text>
  <text font-size="27.0933" style="fill: #000000;text-anchor:start;font-family:sans-serif;font-style:normal;font-weight:normal" x="400" y="-60">
    <tspan x="400" y="-60">Media </tspan>
    <tspan x="400" y="-26.1333">Domain</tspan>
  </text>
</svg>
