<?xml version="1.0" encoding="UTF-8" standalone="no"?>
<!DOCTYPE svg PUBLIC "-//W3C//DTD SVG 1.0//EN" "http://www.w3.org/TR/2001/PR-SVG-20010719/DTD/svg10.dtd">
<svg width="35cm" height="8cm" viewBox="1043 205 691 157" xmlns="http://www.w3.org/2000/svg" xmlns:xlink="http://www.w3.org/1999/xlink">
  <g>
    <path style="fill: #ffffff" d="M 1669.62 225 L 1722.48,225 C 1730.41,235.4 1733.05,240.6 1733.05,251 C 1733.05,261.4 1730.41,266.6 1722.48,277 L 1669.62,277 L 1659.05,251 L 1669.62,225z"/>
    <path style="fill: none; fill-opacity:0; stroke-width: 2; stroke: #000000" d="M 1669.62 225 L 1722.48,225 C 1730.41,235.4 1733.05,240.6 1733.05,251 C 1733.05,261.4 1730.41,266.6 1722.48,277 L 1669.62,277 L 1659.05,251 L 1669.62,225"/>
    <text font-size="12.8" style="fill: #000000;text-anchor:middle;font-family:sans-serif;font-style:normal;font-weight:normal" x="1696.05" y="255">
      <tspan x="1696.05" y="255">Screen</tspan>
    </text>
  </g>
  <text font-size="12.8" style="fill: #000000;text-anchor:start;font-family:sans-serif;font-style:normal;font-weight:normal" x="1634.29" y="217.172">
    <tspan x="1634.29" y="217.172">Rendering</tspan>
  </text>
  <text font-size="12.8" style="fill: #000000;text-anchor:start;font-family:sans-serif;font-style:normal;font-weight:normal" x="1527.34" y="217.878">
    <tspan x="1527.34" y="217.878">Encoding</tspan>
  </text>
  <g>
    <polygon style="fill: #ffffff" points="1351.74,228 1466.23,228 1446.58,282 1332.08,282 "/>
    <polygon style="fill: none; fill-opacity:0; stroke-width: 2; stroke: #000000" points="1351.74,228 1466.23,228 1446.58,282 1332.08,282 "/>
    <text font-size="12.8" style="fill: #000000;text-anchor:middle;font-family:sans-serif;font-style:normal;font-weight:normal" x="1399.16" y="250.9">
      <tspan x="1399.16" y="250.9">Hypertext</tspan>
      <tspan x="1399.16" y="266.9">Presentation</tspan>
    </text>
  </g>
  <text font-size="12.8" style="fill: #000000;text-anchor:start;font-family:sans-serif;font-style:normal;font-weight:normal" x="1432.79" y="218.586">
    <tspan x="1432.79" y="218.586">Formatting</tspan>
  </text>
  <text font-size="12.8" style="fill: #000000;text-anchor:start;font-family:sans-serif;font-style:normal;font-weight:normal" x="1318.64" y="218.586">
    <tspan x="1318.64" y="218.586">Presentation</tspan>
  </text>
  <g>
    <line style="fill: none; fill-opacity:0; stroke-width: 2; stroke: #000000" x1="1056.64" y1="354.844" x2="1723.53" y2="355.478"/>
    <polyline style="fill: none; fill-opacity:0; stroke-width: 2; stroke: #000000" points="1715.76,360.47 1725.76,355.48 1715.77,350.47 "/>
  </g>
  <g>
    <polygon style="fill: #ffffff" points="1328.77,290.8 1443.27,290.8 1423.62,344.8 1309.12,344.8 "/>
    <polygon style="fill: none; fill-opacity:0; stroke-width: 2; stroke: #000000" points="1328.77,290.8 1443.27,290.8 1423.62,344.8 1309.12,344.8 "/>
    <text font-size="12.8" style="fill: #000000;text-anchor:middle;font-family:sans-serif;font-style:normal;font-weight:normal" x="1376.19" y="313.7">
      <tspan x="1376.19" y="313.7">Book </tspan>
      <tspan x="1376.19" y="329.7">Presentation</tspan>
    </text>
  </g>
  <g>
    <polygon style="fill: #ffffff" points="1470.15,227.508 1540.1,227.508 1520.44,281.508 1450.49,281.508 "/>
    <polygon style="fill: none; fill-opacity:0; stroke-width: 2; stroke: #000000" points="1470.15,227.508 1540.1,227.508 1520.44,281.508 1450.49,281.508 "/>
    <text font-size="12.8" style="fill: #000000;text-anchor:middle;font-family:sans-serif;font-style:normal;font-weight:normal" x="1495.29" y="258.408">
      <tspan x="1495.29" y="258.408">HTML</tspan>
    </text>
  </g>
  <g>
    <polygon style="fill: #ffffff" points="1447.97,289.6 1521.95,289.6 1502.29,343.6 1428.32,343.6 "/>
    <polygon style="fill: none; fill-opacity:0; stroke-width: 2; stroke: #000000" points="1447.97,289.6 1521.95,289.6 1502.29,343.6 1428.32,343.6 "/>
    <text font-size="12.8" style="fill: #000000;text-anchor:middle;font-family:sans-serif;font-style:normal;font-weight:normal" x="1475.13" y="320.5">
      <tspan x="1475.13" y="320.5">XSL-FO</tspan>
    </text>
  </g>
  <g>
    <polygon style="fill: #ffffff" points="1545.15,227.434 1660.17,227.434 1640.51,281.434 1525.49,281.434 "/>
    <polygon style="fill: none; fill-opacity:0; stroke-width: 2; stroke: #000000" points="1545.15,227.434 1660.17,227.434 1640.51,281.434 1525.49,281.434 "/>
    <text font-size="12.8" style="fill: #000000;text-anchor:middle;font-family:sans-serif;font-style:normal;font-weight:normal" x="1592.83" y="258.334">
      <tspan x="1592.83" y="258.334">Browser DOM</tspan>
    </text>
  </g>
  <g>
    <polygon style="fill: #ffffff" points="1528.84,289.4 1632.15,289.4 1612.49,343.4 1509.18,343.4 "/>
    <polygon style="fill: none; fill-opacity:0; stroke-width: 2; stroke: #000000" points="1528.84,289.4 1632.15,289.4 1612.49,343.4 1509.18,343.4 "/>
    <text font-size="12.8" style="fill: #000000;text-anchor:middle;font-family:sans-serif;font-style:normal;font-weight:normal" x="1570.67" y="320.3">
      <tspan x="1570.67" y="320.3">PDF</tspan>
    </text>
  </g>
  <g>
    <path style="fill: #ffffff" d="M 1670 289.922 L 1722.86,289.922 C 1730.79,300.322 1733.43,305.522 1733.43,315.922 C 1733.43,326.322 1730.79,331.522 1722.86,341.922 L 1670,341.922 L 1659.43,315.922 L 1670,289.922z"/>
    <path style="fill: none; fill-opacity:0; stroke-width: 2; stroke: #000000" d="M 1670 289.922 L 1722.86,289.922 C 1730.79,300.322 1733.43,305.522 1733.43,315.922 C 1733.43,326.322 1730.79,331.522 1722.86,341.922 L 1670,341.922 L 1659.43,315.922 L 1670,289.922"/>
    <text font-size="12.8" style="fill: #000000;text-anchor:middle;font-family:sans-serif;font-style:normal;font-weight:normal" x="1696.43" y="319.922">
      <tspan x="1696.43" y="319.922">Paper</tspan>
    </text>
  </g>
  <g>
    <polygon style="fill: #ffffff" points="1256.6,228.424 1346.03,228.424 1326.38,282.424 1236.95,282.424 "/>
    <polygon style="fill: none; fill-opacity:0; stroke-width: 2; stroke: #000000" points="1256.6,228.424 1346.03,228.424 1326.38,282.424 1236.95,282.424 "/>
    <text font-size="12.8" style="fill: #000000;text-anchor:middle;font-family:sans-serif;font-style:normal;font-weight:normal" x="1291.49" y="251.324">
      <tspan x="1291.49" y="251.324">Help</tspan>
      <tspan x="1291.49" y="267.324">Content</tspan>
    </text>
  </g>
  <g>
    <polygon style="fill: #ffffff" points="1234.68,291.224 1323.07,291.224 1303.41,345.224 1215.03,345.224 "/>
    <polygon style="fill: none; fill-opacity:0; stroke-width: 2; stroke: #000000" points="1234.68,291.224 1323.07,291.224 1303.41,345.224 1215.03,345.224 "/>
    <text font-size="12.8" style="fill: #000000;text-anchor:middle;font-family:sans-serif;font-style:normal;font-weight:normal" x="1269.05" y="314.124">
      <tspan x="1269.05" y="314.124">Manual</tspan>
      <tspan x="1269.05" y="330.124">Content</tspan>
    </text>
  </g>
  <g>
    <polygon style="fill: #ffffff" points="1087.15,228.424 1252.99,228.424 1210.84,344.238 1044.99,344.238 "/>
    <polygon style="fill: none; fill-opacity:0; stroke-width: 2; stroke: #000000" points="1087.15,228.424 1252.99,228.424 1210.84,344.238 1044.99,344.238 "/>
    <text font-size="12.8" style="fill: #000000;text-anchor:middle;font-family:sans-serif;font-style:normal;font-weight:normal" x="1148.99" y="266.231">
      <tspan x="1148.99" y="266.231">Source </tspan>
      <tspan x="1148.99" y="282.231">(subject domain or</tspan>
      <tspan x="1148.99" y="298.231">document +</tspan>
      <tspan x="1148.99" y="314.231">mgt. domain) </tspan>
    </text>
  </g>
  <text font-size="12.8" style="fill: #000000;text-anchor:start;font-family:sans-serif;font-style:normal;font-weight:normal" x="1227.26" y="218.304">
    <tspan x="1227.26" y="218.304">Synthesis</tspan>
  </text>
</svg>
