<?xml version="1.0" encoding="UTF-8" standalone="no"?>
<!DOCTYPE svg PUBLIC "-//W3C//DTD SVG 1.0//EN" "http://www.w3.org/TR/2001/PR-SVG-20010719/DTD/svg10.dtd">
<svg width="34cm" height="8cm" viewBox="1068 208 667 155" xmlns="http://www.w3.org/2000/svg" xmlns:xlink="http://www.w3.org/1999/xlink">
  <g>
    <path style="fill: #ffffff" d="M 1669.62 225 L 1722.48,225 C 1730.41,235.4 1733.05,240.6 1733.05,251 C 1733.05,261.4 1730.41,266.6 1722.48,277 L 1669.62,277 L 1659.05,251 L 1669.62,225z"/>
    <path style="fill: none; fill-opacity:0; stroke-width: 2; stroke: #000000" d="M 1669.62 225 L 1722.48,225 C 1730.41,235.4 1733.05,240.6 1733.05,251 C 1733.05,261.4 1730.41,266.6 1722.48,277 L 1669.62,277 L 1659.05,251 L 1669.62,225"/>
    <text font-size="12.8" style="fill: #000000;text-anchor:middle;font-family:sans-serif;font-style:normal;font-weight:normal" x="1696.05" y="255">
      <tspan x="1696.05" y="255">Screen</tspan>
    </text>
  </g>
  <text font-size="12.8" style="fill: #000000;text-anchor:start;font-family:sans-serif;font-style:normal;font-weight:normal" x="1635" y="220">
    <tspan x="1635" y="220">Rendering</tspan>
  </text>
  <text font-size="12.8" style="fill: #000000;text-anchor:start;font-family:sans-serif;font-style:normal;font-weight:normal" x="1491.99" y="220">
    <tspan x="1491.99" y="220">Encoding</tspan>
  </text>
  <g>
    <polygon style="fill: #ffffff" points="1233.8,228 1367.64,228 1347.99,282 1214.15,282 "/>
    <polygon style="fill: none; fill-opacity:0; stroke-width: 2; stroke: #000000" points="1233.8,228 1367.64,228 1347.99,282 1214.15,282 "/>
    <text font-size="12.8" style="fill: #000000;text-anchor:middle;font-family:sans-serif;font-style:normal;font-weight:normal" x="1290.9" y="250.9">
      <tspan x="1290.9" y="250.9">Hypertext</tspan>
      <tspan x="1290.9" y="266.9">Presentation</tspan>
    </text>
  </g>
  <text font-size="12.8" style="fill: #000000;text-anchor:start;font-family:sans-serif;font-style:normal;font-weight:normal" x="1338.03" y="220">
    <tspan x="1338.03" y="220">Formatting</tspan>
  </text>
  <g>
    <polygon style="fill: #ffffff" points="1111.68,228 1227.4,228 1184.81,345 1069.09,345 "/>
    <polygon style="fill: none; fill-opacity:0; stroke-width: 2; stroke: #000000" points="1111.68,228 1227.4,228 1184.81,345 1069.09,345 "/>
    <text font-size="12.8" style="fill: #000000;text-anchor:middle;font-family:sans-serif;font-style:normal;font-weight:normal" x="1148.24" y="258.4">
      <tspan x="1148.24" y="258.4">Resolved</tspan>
      <tspan x="1148.24" y="274.4">Content</tspan>
      <tspan x="1148.24" y="290.4">(subject,</tspan>
      <tspan x="1148.24" y="306.4">document</tspan>
      <tspan x="1148.24" y="322.4">domains)</tspan>
    </text>
  </g>
  <text font-size="12.8" style="fill: #000000;text-anchor:start;font-family:sans-serif;font-style:normal;font-weight:normal" x="1199.85" y="220">
    <tspan x="1199.85" y="220">Presentation</tspan>
  </text>
  <g>
    <line style="fill: none; fill-opacity:0; stroke-width: 2; stroke: #000000" x1="1078.05" y1="355.482" x2="1723.53" y2="355.482"/>
    <polyline style="fill: none; fill-opacity:0; stroke-width: 2; stroke: #000000" points="1715.76,360.482 1725.76,355.482 1715.76,350.482 "/>
  </g>
  <g>
    <polygon style="fill: #ffffff" points="1210.84,290.8 1344.68,290.8 1325.03,344.8 1191.18,344.8 "/>
    <polygon style="fill: none; fill-opacity:0; stroke-width: 2; stroke: #000000" points="1210.84,290.8 1344.68,290.8 1325.03,344.8 1191.18,344.8 "/>
    <text font-size="12.8" style="fill: #000000;text-anchor:middle;font-family:sans-serif;font-style:normal;font-weight:normal" x="1267.93" y="313.7">
      <tspan x="1267.93" y="313.7">Book </tspan>
      <tspan x="1267.93" y="329.7">Presentation</tspan>
    </text>
  </g>
  <g>
    <polygon style="fill: #ffffff" points="1377.97,226.8 1511.81,226.8 1492.16,280.8 1358.31,280.8 "/>
    <polygon style="fill: none; fill-opacity:0; stroke-width: 2; stroke: #000000" points="1377.97,226.8 1511.81,226.8 1492.16,280.8 1358.31,280.8 "/>
    <text font-size="12.8" style="fill: #000000;text-anchor:middle;font-family:sans-serif;font-style:normal;font-weight:normal" x="1435.06" y="257.7">
      <tspan x="1435.06" y="257.7">HTML</tspan>
    </text>
  </g>
  <g>
    <polygon style="fill: #ffffff" points="1355,289.6 1488.85,289.6 1469.19,343.6 1335.35,343.6 "/>
    <polygon style="fill: none; fill-opacity:0; stroke-width: 2; stroke: #000000" points="1355,289.6 1488.85,289.6 1469.19,343.6 1335.35,343.6 "/>
    <text font-size="12.8" style="fill: #000000;text-anchor:middle;font-family:sans-serif;font-style:normal;font-weight:normal" x="1412.1" y="320.5">
      <tspan x="1412.1" y="320.5">XSL-FO</tspan>
    </text>
  </g>
  <g>
    <polygon style="fill: #ffffff" points="1521.35,226.434 1655.19,226.434 1635.54,280.434 1501.7,280.434 "/>
    <polygon style="fill: none; fill-opacity:0; stroke-width: 2; stroke: #000000" points="1521.35,226.434 1655.19,226.434 1635.54,280.434 1501.7,280.434 "/>
    <text font-size="12.8" style="fill: #000000;text-anchor:middle;font-family:sans-serif;font-style:normal;font-weight:normal" x="1578.44" y="257.334">
      <tspan x="1578.44" y="257.334">Browser DOM</tspan>
    </text>
  </g>
  <g>
    <polygon style="fill: #ffffff" points="1498.3,289.4 1632.15,289.4 1612.49,343.4 1478.65,343.4 "/>
    <polygon style="fill: none; fill-opacity:0; stroke-width: 2; stroke: #000000" points="1498.3,289.4 1632.15,289.4 1612.49,343.4 1478.65,343.4 "/>
    <text font-size="12.8" style="fill: #000000;text-anchor:middle;font-family:sans-serif;font-style:normal;font-weight:normal" x="1555.4" y="320.3">
      <tspan x="1555.4" y="320.3">PDF</tspan>
    </text>
  </g>
  <g>
    <path style="fill: #ffffff" d="M 1670 289.922 L 1722.86,289.922 C 1730.79,300.322 1733.43,305.522 1733.43,315.922 C 1733.43,326.322 1730.79,331.522 1722.86,341.922 L 1670,341.922 L 1659.43,315.922 L 1670,289.922z"/>
    <path style="fill: none; fill-opacity:0; stroke-width: 2; stroke: #000000" d="M 1670 289.922 L 1722.86,289.922 C 1730.79,300.322 1733.43,305.522 1733.43,315.922 C 1733.43,326.322 1730.79,331.522 1722.86,341.922 L 1670,341.922 L 1659.43,315.922 L 1670,289.922"/>
    <text font-size="12.8" style="fill: #000000;text-anchor:middle;font-family:sans-serif;font-style:normal;font-weight:normal" x="1696.43" y="319.922">
      <tspan x="1696.43" y="319.922">Paper</tspan>
    </text>
  </g>
</svg>
