<?xml version="1.0" encoding="UTF-8" standalone="no"?>
<!DOCTYPE svg PUBLIC "-//W3C//DTD SVG 1.0//EN" "http://www.w3.org/TR/2001/PR-SVG-20010719/DTD/svg10.dtd">
<svg width="23cm" height="27cm" viewBox="71 -86 458 528" xmlns="http://www.w3.org/2000/svg" xmlns:xlink="http://www.w3.org/1999/xlink">
  <g>
    <ellipse style="fill: #ffffff" cx="132.554" cy="171.554" rx="60.1249" ry="60.1249"/>
    <ellipse style="fill: none; fill-opacity:0; stroke-width: 2; stroke: #000000" cx="132.554" cy="171.554" rx="60.1249" ry="60.1249"/>
    <text font-size="27.0933" style="fill: #000000;text-anchor:middle;font-family:sans-serif;font-style:normal;font-weight:normal" x="132.554" y="179.771">
      <tspan x="132.554" y="179.771">Source</tspan>
    </text>
  </g>
  <g>
    <ellipse style="fill: #ffffff" cx="304.672" cy="98.8128" rx="70.0725" ry="64.2133"/>
    <ellipse style="fill: none; fill-opacity:0; stroke-width: 1.9812; stroke: #000000" cx="304.672" cy="98.8128" rx="70.0725" ry="64.2133"/>
    <text font-size="20.32" style="fill: #000000;text-anchor:middle;font-family:sans-serif;font-style:normal;font-weight:normal" x="304.672" y="104.963">
      <tspan x="304.672" y="104.963">Hypertext</tspan>
    </text>
  </g>
  <g>
    <ellipse style="fill: #ffffff" cx="311.021" cy="251.021" rx="55.8343" ry="55.8343"/>
    <ellipse style="fill: none; fill-opacity:0; stroke-width: 2; stroke: #000000" cx="311.021" cy="251.021" rx="55.8343" ry="55.8343"/>
    <text font-size="27.0933" style="fill: #000000;text-anchor:middle;font-family:sans-serif;font-style:normal;font-weight:normal" x="311.021" y="259.238">
      <tspan x="311.021" y="259.238">Linear</tspan>
    </text>
  </g>
  <g>
    <ellipse style="fill: #ffffff" cx="462.621" cy="42.6209" rx="45.505" ry="45.505"/>
    <ellipse style="fill: none; fill-opacity:0; stroke-width: 2; stroke: #000000" cx="462.621" cy="42.6209" rx="45.505" ry="45.505"/>
    <text font-size="27.0933" style="fill: #000000;text-anchor:middle;font-family:sans-serif;font-style:normal;font-weight:normal" x="462.621" y="50.8376">
      <tspan x="462.621" y="50.8376">Web</tspan>
    </text>
  </g>
  <g>
    <ellipse style="fill: #ffffff" cx="463.009" cy="143.009" rx="45.9916" ry="45.9916"/>
    <ellipse style="fill: none; fill-opacity:0; stroke-width: 2; stroke: #000000" cx="463.009" cy="143.009" rx="45.9916" ry="45.9916"/>
    <text font-size="27.0933" style="fill: #000000;text-anchor:middle;font-family:sans-serif;font-style:normal;font-weight:normal" x="463.009" y="151.226">
      <tspan x="463.009" y="151.226">Help</tspan>
    </text>
  </g>
  <g>
    <ellipse style="fill: #ffffff" cx="468.447" cy="250.149" rx="52.6014" ry="54.3037"/>
    <ellipse style="fill: none; fill-opacity:0; stroke-width: 2; stroke: #000000" cx="468.447" cy="250.149" rx="52.6014" ry="54.3037"/>
    <text font-size="27.0933" style="fill: #000000;text-anchor:middle;font-family:sans-serif;font-style:normal;font-weight:normal" x="468.447" y="258.366">
      <tspan x="468.447" y="258.366">Paper</tspan>
    </text>
  </g>
  <g>
    <ellipse style="fill: #ffffff" cx="471.938" cy="371.938" rx="55.975" ry="55.975"/>
    <ellipse style="fill: none; fill-opacity:0; stroke-width: 2; stroke: #000000" cx="471.938" cy="371.938" rx="55.975" ry="55.975"/>
    <text font-size="27.0933" style="fill: #000000;text-anchor:middle;font-family:sans-serif;font-style:normal;font-weight:normal" x="471.938" y="380.154">
      <tspan x="471.938" y="380.154">EBook</tspan>
    </text>
  </g>
  <g>
    <line style="fill: none; fill-opacity:0; stroke-width: 2; stroke: #000000" x1="175.069" y1="129.039" x2="225.918" y2="103.221"/>
    <polygon style="fill: #000000" points="232.606,99.8251 225.953,108.811 225.918,103.221 221.426,99.8942 "/>
    <polygon style="fill: none; fill-opacity:0; stroke-width: 2; stroke: #000000" points="232.606,99.8251 225.953,108.811 225.918,103.221 221.426,99.8942 "/>
  </g>
  <g>
    <line style="fill: none; fill-opacity:0; stroke-width: 2; stroke: #000000" x1="369.41" y1="74.2394" x2="411.198" y2="62.6391"/>
    <polygon style="fill: #000000" points="418.425,60.633 410.127,68.1257 411.198,62.6391 407.452,58.49 "/>
    <polygon style="fill: none; fill-opacity:0; stroke-width: 2; stroke: #000000" points="418.425,60.633 410.127,68.1257 411.198,62.6391 407.452,58.49 "/>
  </g>
  <g>
    <line style="fill: none; fill-opacity:0; stroke-width: 2; stroke: #000000" x1="369.41" y1="123.386" x2="408.016" y2="139.299"/>
    <polygon style="fill: #000000" points="414.95,142.157 403.8,142.969 408.016,139.299 407.611,133.724 "/>
    <polygon style="fill: none; fill-opacity:0; stroke-width: 2; stroke: #000000" points="414.95,142.157 403.8,142.969 408.016,139.299 407.611,133.724 "/>
  </g>
  <g>
    <line style="fill: none; fill-opacity:0; stroke-width: 2; stroke: #000000" x1="175.069" y1="214.069" x2="246.785" y2="233.562"/>
    <polygon style="fill: #000000" points="254.023,235.529 243.062,237.731 246.785,233.562 245.684,228.081 "/>
    <polygon style="fill: none; fill-opacity:0; stroke-width: 2; stroke: #000000" points="254.023,235.529 243.062,237.731 246.785,233.562 245.684,228.081 "/>
  </g>
  <g>
    <line style="fill: none; fill-opacity:0; stroke-width: 2; stroke: #000000" x1="366.856" y1="251.021" x2="406.111" y2="250.322"/>
    <polygon style="fill: #000000" points="413.61,250.189 403.7,255.366 406.111,250.322 403.522,245.368 "/>
    <polygon style="fill: none; fill-opacity:0; stroke-width: 2; stroke: #000000" points="413.61,250.189 403.7,255.366 406.111,250.322 403.522,245.368 "/>
  </g>
  <g>
    <line style="fill: none; fill-opacity:0; stroke-width: 2; stroke: #000000" x1="350.502" y1="290.502" x2="423.689" y2="327.925"/>
    <polygon style="fill: #000000" points="430.366,331.339 419.186,331.238 423.689,327.925 423.739,322.335 "/>
    <polygon style="fill: none; fill-opacity:0; stroke-width: 2; stroke: #000000" points="430.366,331.339 419.186,331.238 423.689,327.925 423.739,322.335 "/>
  </g>
  <line style="fill: none; fill-opacity:0; stroke-width: 4; stroke: #7f7f7f" x1="217" y1="-80" x2="217" y2="440"/>
  <line style="fill: none; fill-opacity:0; stroke-width: 4; stroke: #7f7f7f" x1="385" y1="-80" x2="385" y2="440"/>
  <text font-size="27.0933" style="fill: #000000;text-anchor:start;font-family:sans-serif;font-style:normal;font-weight:normal" x="100" y="-60">
    <tspan x="100" y="-60">Subject </tspan>
    <tspan x="100" y="-26.1333">Domain</tspan>
  </text>
  <text font-size="27.0933" style="fill: #000000;text-anchor:start;font-family:sans-serif;font-style:normal;font-weight:normal" x="232" y="-60">
    <tspan x="232" y="-60">Document </tspan>
    <tspan x="232" y="-26.1333">Domain</tspan>
  </text>
  <text font-size="27.0933" style="fill: #000000;text-anchor:start;font-family:sans-serif;font-style:normal;font-weight:normal" x="400" y="-60">
    <tspan x="400" y="-60">Media </tspan>
    <tspan x="400" y="-26.1333">Domain</tspan>
  </text>
  <text font-size="12.7998" style="fill: #000000;text-anchor:start;font-family:sans-serif;font-style:normal;font-weight:normal" x="304.672" y="98.8128">
    <tspan x="304.672" y="98.8128"></tspan>
  </text>
  <text font-size="12.7998" style="fill: #000000;text-anchor:start;font-family:sans-serif;font-style:normal;font-weight:normal" x="304.672" y="98.8128">
    <tspan x="304.672" y="98.8128"></tspan>
  </text>
</svg>
