<?xml version="1.0" encoding="UTF-8" standalone="no"?>
<!DOCTYPE svg PUBLIC "-//W3C//DTD SVG 1.0//EN" "http://www.w3.org/TR/2001/PR-SVG-20010719/DTD/svg10.dtd">
<svg width="18cm" height="8cm" viewBox="1417 208 357 143" xmlns="http://www.w3.org/2000/svg" xmlns:xlink="http://www.w3.org/1999/xlink">
  <g>
    <path style="fill: #ffffff" d="M 1702.3 228 L 1761.25,228 C 1770.09,248.8 1773.04,259.2 1773.04,280 C 1773.04,300.8 1770.09,311.2 1761.25,332 L 1702.3,332 L 1690.51,280 L 1702.3,228z"/>
    <path style="fill: none; fill-opacity:0; stroke-width: 2; stroke: #000000" d="M 1702.3 228 L 1761.25,228 C 1770.09,248.8 1773.04,259.2 1773.04,280 C 1773.04,300.8 1770.09,311.2 1761.25,332 L 1702.3,332 L 1690.51,280 L 1702.3,228"/>
    <text font-size="12.8" style="fill: #000000;text-anchor:middle;font-family:sans-serif;font-style:normal;font-weight:normal" x="1731.77" y="268">
      <tspan x="1731.77" y="268">Output</tspan>
      <tspan x="1731.77" y="284">(media</tspan>
      <tspan x="1731.77" y="300">domain)</tspan>
    </text>
  </g>
  <g>
    <polygon style="fill: #ffffff" points="1575.1,228 1699.12,228 1661.27,332 1537.25,332 "/>
    <polygon style="fill: none; fill-opacity:0; stroke-width: 2; stroke: #000000" points="1575.1,228 1699.12,228 1661.27,332 1537.25,332 "/>
    <text font-size="12.8" style="fill: #000000;text-anchor:middle;font-family:sans-serif;font-style:normal;font-weight:normal" x="1618.18" y="251.9">
      <tspan x="1618.18" y="251.9">Page</tspan>
      <tspan x="1618.18" y="267.9">Description</tspan>
      <tspan x="1618.18" y="283.9">Language</tspan>
      <tspan x="1618.18" y="299.9">(media</tspan>
      <tspan x="1618.18" y="315.9">domain)</tspan>
    </text>
  </g>
  <text font-size="12.8" style="fill: #000000;text-anchor:start;font-family:sans-serif;font-style:normal;font-weight:normal" x="1661.81" y="220">
    <tspan x="1661.81" y="220">Rendering</tspan>
  </text>
  <g>
    <polygon style="fill: #ffffff" points="1456.61,228 1572.45,228 1534.6,332 1418.75,332 "/>
    <polygon style="fill: none; fill-opacity:0; stroke-width: 2; stroke: #000000" points="1456.61,228 1572.45,228 1534.6,332 1418.75,332 "/>
    <text font-size="12.8" style="fill: #000000;text-anchor:middle;font-family:sans-serif;font-style:normal;font-weight:normal" x="1495.6" y="259.9">
      <tspan x="1495.6" y="259.9">Formatting</tspan>
      <tspan x="1495.6" y="275.9">Language</tspan>
      <tspan x="1495.6" y="291.9">(media</tspan>
      <tspan x="1495.6" y="307.9">domain)</tspan>
    </text>
  </g>
  <text font-size="12.8" style="fill: #000000;text-anchor:start;font-family:sans-serif;font-style:normal;font-weight:normal" x="1546.99" y="220">
    <tspan x="1546.99" y="220">Encoding</tspan>
  </text>
  <g>
    <line style="fill: none; fill-opacity:0; stroke-width: 2; stroke: #000000" x1="1420" y1="343.482" x2="1755.53" y2="343.482"/>
    <polyline style="fill: none; fill-opacity:0; stroke-width: 2; stroke: #000000" points="1747.76,348.482 1757.76,343.482 1747.76,338.482 "/>
  </g>
</svg>
