<?xml version="1.0" encoding="UTF-8" standalone="no"?>
<!-- Created with Inkscape (http://www.inkscape.org/) -->

<svg
   xmlns:dc="http://purl.org/dc/elements/1.1/"
   xmlns:cc="http://creativecommons.org/ns#"
   xmlns:rdf="http://www.w3.org/1999/02/22-rdf-syntax-ns#"
   xmlns:svg="http://www.w3.org/2000/svg"
   xmlns="http://www.w3.org/2000/svg"
   xmlns:sodipodi="http://sodipodi.sourceforge.net/DTD/sodipodi-0.dtd"
   xmlns:inkscape="http://www.inkscape.org/namespaces/inkscape"
   width="361.41733"
   height="379.13385"
   id="svg3067"
   version="1.1"
   inkscape:version="0.48.4 r9939"
   inkscape:export-filename="C:\Users\vauthier\Pictures\slt\Sdolphin.png"
   inkscape:export-xdpi="181"
   inkscape:export-ydpi="181"
   sodipodi:docname="1396435340.svg">
  <defs
     id="defs3" />
  <sodipodi:namedview
     inkscape:document-units="mm"
     id="base"
     pagecolor="#ffffff"
     bordercolor="#666666"
     borderopacity="1.0"
     inkscape:pageopacity="0.0"
     inkscape:pageshadow="2"
     inkscape:zoom="1.4142136"
     inkscape:cx="149.09743"
     inkscape:cy="78.923642"
     inkscape:current-layer="layer1"
     showgrid="false"
     units="px"
     width="297mm"
     inkscape:window-width="2560"
     inkscape:window-height="1576"
     inkscape:window-x="1920"
     inkscape:window-y="24"
     inkscape:window-maximized="1" />
  <metadata
     id="metadata4">
    <rdf:RDF>
      <cc:Work
         rdf:about="">
        <dc:format>image/svg+xml</dc:format>
        <dc:type
           rdf:resource="http://purl.org/dc/dcmitype/StillImage" />
        <dc:title />
      </cc:Work>
    </rdf:RDF>
  </metadata>
  <g
     inkscape:label="Layer 1"
     inkscape:groupmode="layer"
     id="layer1"
     transform="translate(0,-673.22836)">
    <path
       style="fill:#000000;stroke:#000000;stroke-width:1px;stroke-linecap:butt;stroke-linejoin:miter;stroke-opacity:1"
       d="m 135.92857,730.93361 c 1.08518,8.92857 -2.73778,17.85714 -4.64286,26.78571 3.00988,6.62351 11.8269,16.60906 6.78572,18.57143 -2.67094,1.97361 -7.62672,1.15464 -6.42857,7.85715 1.7586,2.63835 -2.23332,3.40151 -3.81147,5.08479 l -0.47425,2.41521 c 1.26426,1.77665 0.92975,3.8158 -3.57143,5.35714 0.21133,6.87799 -1.01492,12.31841 -9.28571,10.71428 -7.29828,-1.36045 -15.67836,-4.23542 -25.35714,-8.92857 -2.65134,0.39746 -1.987947,11.69047 0.177163,25.62346 -5.889828,-0.18146 -10.360571,-2.99348 -11.555894,-2.30184 -1.174316,0.67949 -1.51222,3.93059 0.664441,7.39267 8.28906,13.3599 10.325636,23.39289 20.771716,40.85786 10.977614,18.35365 14.455034,31.15781 11.713934,50.65685 L 104.5,966.6479 l 62.67857,17.85714 c 10.90223,1.29685 21.81571,-11.99287 30.35714,-16.78571 2.91967,-3.00983 6.34942,-2.86413 10,-2.85715 l 9.64286,0 c 7.14945,-0.34835 17.01331,7.57586 28.92857,12.5 0.32859,1.37937 -1.24751,4.3546 -8.21428,1.07143 L 225.75,972.36218 c -2.59854,-0.50069 -5.15539,-1.29325 -8.21429,1.42857 5.12212,0.17704 6.8732,2.03959 9.28572,3.57143 4.64572,4.0132 6.88595,8.37004 8.21428,12.85715 1.32485,3.15667 -15.75764,3.74571 -16.78571,2.14285 -2.61905,-2.77316 -5.2381,-4.47875 -7.85715,-3.92857 -13.39285,3.80952 -11.05492,9.05422 -24.64285,10.35714 -28.11143,-1.2348 -56.22287,2.18465 -84.3343,-3.92857 -0.25835,3.48065 -0.55332,7.30352 1e-5,11.21702 l -55.16317,0.3774 C 59.34864,977.07512 59.9654,960.29161 53.78571,943.07647 40.2543,905.38117 31.135218,863.10329 43.909818,822.03914 40.052675,820.1676 32.793881,826.72302 31.5,817.96932 26.79726,772.5777 15.54224,741.09768 43.60714,705.3979 c 22.09995,-28.58305 83.2267,-4.00045 95.53572,20.17857 z"
       id="path3084"
       inkscape:connector-curvature="0"
       sodipodi:nodetypes="ccccccccccccsscccccccccccccccccsccccc" />
    <path
       style="fill:#000000;stroke:#000000;stroke-width:1px;stroke-linecap:butt;stroke-linejoin:miter;stroke-opacity:1"
       d="m 171.50047,1005.948 95.60735,0.1352 c 0.1217,-3.6678 4.06176,-11.09548 0.35714,-10.99436 l -80.55967,4.29314 c -4.7209,0.25158 -12.40473,0.38761 -14.14213,2.02032 -1.24477,1.1697 -1.41599,2.8151 -1.26269,4.5457 z"
       id="path3086"
       inkscape:connector-curvature="0"
       sodipodi:nodetypes="cccssc" />
    <rect
       style="fill:#000000;fill-opacity:1;stroke:#ffe680;stroke-width:0.81896716;stroke-linecap:round;stroke-linejoin:miter;stroke-miterlimit:4;stroke-opacity:1;stroke-dasharray:none;stroke-dashoffset:0"
       id="rect3088"
       width="9.3689938"
       height="148.73277"
       x="566.45184"
       y="714.70135"
       transform="matrix(0.952271,0.30525391,-0.30525391,0.952271,0,0)" />
    <path
       style="fill:#000000;stroke:#000000;stroke-width:1px;stroke-linecap:butt;stroke-linejoin:miter;stroke-opacity:1"
       d="m 299.45064,954.80746 c 0,0 19.44544,40.91118 19.95051,41.92133 2.366,5.23831 1.72742,7.29381 -4.67566,7.69341 l -42.29643,1.903 43.94164,0.2526 c 8.50046,-0.4828 8.70539,-4.3592 6.81853,-9.09139 l -23.23351,-48.73986 z"
       id="path3862"
       inkscape:connector-curvature="0"
       sodipodi:nodetypes="cccccccc" />
  </g>
</svg>
