<?xml version="1.0" encoding="UTF-8" standalone="no"?>
<svg
   xmlns:dc="http://purl.org/dc/elements/1.1/"
   xmlns:cc="http://creativecommons.org/ns#"
   xmlns:rdf="http://www.w3.org/1999/02/22-rdf-syntax-ns#"
   xmlns:svg="http://www.w3.org/2000/svg"
   xmlns="http://www.w3.org/2000/svg"
   xmlns:sodipodi="http://sodipodi.sourceforge.net/DTD/sodipodi-0.dtd"
   xmlns:inkscape="http://www.inkscape.org/namespaces/inkscape"
   version="1.1"
   id="svg2"
   viewBox="0 0 512.18128 155.95765"
   height="1.7328628in"
   width="5.6909032in"
   inkscape:version="0.91 r13725"
   sodipodi:docname="ideas2dotsrecordmid.svg"
   inkscape:export-filename="C:\Users\Mark\structuredwritingbook\graphics\ideas2dotsrecordmid.png"
   inkscape:export-xdpi="90"
   inkscape:export-ydpi="90">
  <sodipodi:namedview
     pagecolor="#ffffff"
     bordercolor="#666666"
     borderopacity="1"
     objecttolerance="10"
     gridtolerance="10"
     guidetolerance="10"
     inkscape:pageopacity="0"
     inkscape:pageshadow="2"
     inkscape:window-width="1304"
     inkscape:window-height="745"
     id="namedview3483"
     showgrid="false"
     fit-margin-top="0"
     fit-margin-left="0"
     fit-margin-right="0"
     fit-margin-bottom="0"
     units="in"
     inkscape:zoom="0.80349699"
     inkscape:cx="301.04246"
     inkscape:cy="87.825146"
     inkscape:window-x="-8"
     inkscape:window-y="-8"
     inkscape:window-maximized="1"
     inkscape:current-layer="svg2" />
  <defs
     id="defs4">
    <marker
       style="overflow:visible"
       id="Arrow1Send"
       refX="0"
       refY="0"
       orient="auto">
      <path
         transform="matrix(-0.2,0,0,-0.2,-1.2,0)"
         style="fill:#000000;fill-opacity:1;fill-rule:evenodd;stroke:#000000;stroke-width:1pt;stroke-opacity:1"
         d="M 0,0 5,-5 -12.5,0 5,5 0,0 Z"
         id="path4157"
         inkscape:connector-curvature="0" />
    </marker>
    <marker
       style="overflow:visible"
       id="marker4541"
       refX="0"
       refY="0"
       orient="auto">
      <path
         transform="matrix(-0.8,0,0,-0.8,-10,0)"
         style="fill:#000000;fill-opacity:1;fill-rule:evenodd;stroke:#000000;stroke-width:1pt;stroke-opacity:1"
         d="M 0,0 5,-5 -12.5,0 5,5 0,0 Z"
         id="path4543"
         inkscape:connector-curvature="0" />
    </marker>
    <marker
       style="overflow:visible"
       id="Arrow1Lend"
       refX="0"
       refY="0"
       orient="auto">
      <path
         transform="matrix(-0.8,0,0,-0.8,-10,0)"
         style="fill:#000000;fill-opacity:1;fill-rule:evenodd;stroke:#000000;stroke-width:1pt;stroke-opacity:1"
         d="M 0,0 5,-5 -12.5,0 5,5 0,0 Z"
         id="path4145"
         inkscape:connector-curvature="0" />
    </marker>
  </defs>
  <metadata
     id="metadata7">
    <rdf:RDF>
      <cc:Work
         rdf:about="">
        <dc:format>image/svg+xml</dc:format>
        <dc:type
           rdf:resource="http://purl.org/dc/dcmitype/StillImage" />
        <dc:title />
      </cc:Work>
    </rdf:RDF>
  </metadata>
  <path
     inkscape:connector-curvature="0"
     style="fill:none;fill-rule:evenodd;stroke:#000000;stroke-width:1;stroke-linecap:butt;stroke-linejoin:miter;stroke-miterlimit:4;stroke-dasharray:none;stroke-opacity:1;marker-end:url(#Arrow1Lend)"
     d="m 0,112.48375 510.36128,0"
     id="path3336" />
  <text
     sodipodi:linespacing="125%"
     xml:space="preserve"
     style="font-style:normal;font-weight:normal;font-size:40px;line-height:125%;font-family:Sans;letter-spacing:0px;word-spacing:0px;fill:#000000;fill-opacity:1;stroke:none;stroke-width:1px;stroke-linecap:butt;stroke-linejoin:miter;stroke-opacity:1"
     x="2.6262238"
     y="128.24106"
     id="text4418"><tspan
       id="tspan4420"
       x="2.6262238"
       y="128.24106"
       style="font-size:15px">Ideas in </tspan><tspan
       x="2.6262238"
       y="146.99106"
       id="tspan4422"
       style="font-size:15px">a head</tspan></text>
  <text
     sodipodi:linespacing="125%"
     xml:space="preserve"
     style="font-style:normal;font-weight:normal;font-size:40px;line-height:125%;font-family:Sans;letter-spacing:0px;word-spacing:0px;fill:#000000;fill-opacity:1;stroke:none;stroke-width:1px;stroke-linecap:butt;stroke-linejoin:miter;stroke-opacity:1"
     x="451.69626"
     y="134.08754"
     id="text4418-1"><tspan
       x="451.69626"
       y="134.08754"
       id="tspan4422-7"
       style="font-size:15px">Dots on</tspan><tspan
       x="451.69626"
       y="152.83754"
       style="font-size:15px"
       id="tspan4447">a page</tspan></text>
  <text
     sodipodi:linespacing="125%"
     xml:space="preserve"
     style="font-style:normal;font-weight:normal;font-size:40px;line-height:125%;font-family:Sans;letter-spacing:0px;word-spacing:0px;fill:#000000;fill-opacity:1;stroke:none;stroke-width:1px;stroke-linecap:butt;stroke-linejoin:miter;stroke-opacity:1"
     x="310.9277"
     y="11.396484"
     id="text4418-4"><tspan
       x="310.9277"
       y="11.396484"
       style="font-size:15px"
       id="tspan5332"><tspan
   id="tspan5340"
   style="font-size:15px;text-align:center;text-anchor:middle">Recorded </tspan>here</tspan></text>
  <g
     transform="matrix(0.22312687,0,0,0.22320119,276.45708,-125.76154)"
     id="g5232">
    <path
       sodipodi:nodetypes="ccccccccccccsscccccccccccccccccsccccc"
       inkscape:connector-curvature="0"
       id="path3084"
       d="m 135.92857,730.93361 c 1.08518,8.92857 -2.73778,17.85714 -4.64286,26.78571 3.00988,6.62351 11.8269,16.60906 6.78572,18.57143 -2.67094,1.97361 -7.62672,1.15464 -6.42857,7.85715 1.7586,2.63835 -2.23332,3.40151 -3.81147,5.08479 l -0.47425,2.41521 c 1.26426,1.77665 0.92975,3.8158 -3.57143,5.35714 0.21133,6.87799 -1.01492,12.31841 -9.28571,10.71428 -7.29828,-1.36045 -15.67836,-4.23542 -25.35714,-8.92857 -2.65134,0.39746 -1.987947,11.69047 0.177163,25.62346 -5.889828,-0.18146 -10.360571,-2.99348 -11.555894,-2.30184 -1.174316,0.67949 -1.51222,3.93059 0.664441,7.39267 8.28906,13.3599 10.325636,23.39289 20.771716,40.85786 10.977614,18.35365 14.455034,31.15781 11.713934,50.65685 L 104.5,966.6479 l 62.67857,17.85714 c 10.90223,1.29685 21.81571,-11.99287 30.35714,-16.78571 2.91967,-3.00983 6.34942,-2.86413 10,-2.85715 l 9.64286,0 c 7.14945,-0.34835 17.01331,7.57586 28.92857,12.5 0.32859,1.37937 -1.24751,4.3546 -8.21428,1.07143 L 225.75,972.36218 c -2.59854,-0.50069 -5.15539,-1.29325 -8.21429,1.42857 5.12212,0.17704 6.8732,2.03959 9.28572,3.57143 4.64572,4.0132 6.88595,8.37004 8.21428,12.85715 1.32485,3.15667 -15.75764,3.74571 -16.78571,2.14285 -2.61905,-2.77316 -5.2381,-4.47875 -7.85715,-3.92857 -13.39285,3.80952 -11.05492,9.05422 -24.64285,10.35714 -28.11143,-1.2348 -56.22287,2.18465 -84.3343,-3.92857 -0.25835,3.48065 -0.55332,7.30352 1e-5,11.21702 l -55.16317,0.3774 C 59.34864,977.07512 59.9654,960.29161 53.78571,943.07647 40.2543,905.38117 31.135218,863.10329 43.909818,822.03914 40.052675,820.1676 32.793881,826.72302 31.5,817.96932 26.79726,772.5777 15.54224,741.09768 43.60714,705.3979 c 22.09995,-28.58305 83.2267,-4.00045 95.53572,20.17857 z"
       style="fill:#000000;stroke:#000000;stroke-width:4.48100901px;stroke-linecap:butt;stroke-linejoin:miter;stroke-opacity:1" />
    <path
       sodipodi:nodetypes="cccssc"
       inkscape:connector-curvature="0"
       id="path3086"
       d="m 171.50047,1005.948 95.60735,0.1352 c 0.1217,-3.6678 4.06176,-11.09548 0.35714,-10.99436 l -80.55967,4.29314 c -4.7209,0.25158 -12.40473,0.38761 -14.14213,2.02032 -1.24477,1.1697 -1.41599,2.8151 -1.26269,4.5457 z"
       style="fill:#000000;stroke:#000000;stroke-width:4.48100901px;stroke-linecap:butt;stroke-linejoin:miter;stroke-opacity:1" />
    <rect
       transform="matrix(0.952271,0.30525391,-0.30525391,0.952271,0,0)"
       y="714.70135"
       x="566.45184"
       height="148.73277"
       width="9.3689938"
       id="rect3088"
       style="fill:#000000;fill-opacity:1;stroke:#ffe680;stroke-width:3.66979909;stroke-linecap:round;stroke-linejoin:miter;stroke-miterlimit:4;stroke-dasharray:none;stroke-dashoffset:0;stroke-opacity:1" />
    <path
       sodipodi:nodetypes="cccccccc"
       inkscape:connector-curvature="0"
       id="path3862"
       d="m 299.45064,954.80746 c 0,0 19.44544,40.91118 19.95051,41.92133 2.366,5.23831 1.72742,7.29381 -4.67566,7.69341 l -42.29643,1.903 43.94164,0.2526 c 8.50046,-0.4828 8.70539,-4.3592 6.81853,-9.09139 l -23.23351,-48.73986 z"
       style="fill:#000000;stroke:#000000;stroke-width:4.48100901px;stroke-linecap:butt;stroke-linejoin:miter;stroke-opacity:1" />
  </g>
</svg>
