<?xml version="1.0" encoding="UTF-8" standalone="no"?>
<svg
   xmlns:dc="http://purl.org/dc/elements/1.1/"
   xmlns:cc="http://creativecommons.org/ns#"
   xmlns:rdf="http://www.w3.org/1999/02/22-rdf-syntax-ns#"
   xmlns:svg="http://www.w3.org/2000/svg"
   xmlns="http://www.w3.org/2000/svg"
   viewBox="0 0 534.66669 381.33334"
   height="381.33334"
   width="534.66669"
   xml:space="preserve"
   id="svg2"
   version="1.1"><metadata
     id="metadata8"><rdf:RDF><cc:Work
         rdf:about=""><dc:format>image/svg+xml</dc:format><dc:type
           rdf:resource="http://purl.org/dc/dcmitype/StillImage" /></cc:Work></rdf:RDF></metadata><defs
     id="defs6"><clipPath
       id="clipPath14"
       clipPathUnits="userSpaceOnUse"><path
         id="path12"
         d="M 0,0 H 595.276 V 841.89 H 0 Z" /></clipPath></defs><g
     clip-path="url(#clipPath14)"
     transform="matrix(1.3333333,0,0,-1.3333333,-140,908)"
     id="g10"><text
       id="text18"
       style="font-variant:normal;font-weight:normal;font-size:20.66250038px;font-family:CMR17;-inkscape-font-specification:CMR17;writing-mode:lr-tb;fill:#000000;fill-opacity:1;fill-rule:nonzero;stroke:none"
       transform="matrix(1,0,0,-1,280.957,655.818)"><tspan
         id="tspan16"
         y="0"
         x="0">L</tspan></text>
<text
       id="text22"
       style="font-variant:normal;font-weight:normal;font-size:14.34619999px;font-family:CMR12;-inkscape-font-specification:CMR12;writing-mode:lr-tb;fill:#000000;fill-opacity:1;fill-rule:nonzero;stroke:none"
       transform="matrix(1,0,0,-1,286.035,660.131)"><tspan
         id="tspan20"
         y="0"
         x="0">A</tspan></text>
<text
       id="text30"
       style="font-variant:normal;font-weight:normal;font-size:20.66250038px;font-family:CMR17;-inkscape-font-specification:CMR17;writing-mode:lr-tb;fill:#000000;fill-opacity:1;fill-rule:nonzero;stroke:none"
       transform="matrix(1,0,0,-1,293.723,655.818)"><tspan
         id="tspan24"
         y="0"
         x="0">T</tspan><tspan
         id="tspan26"
         y="4.448"
         x="10.635">E</tspan><tspan
         id="tspan28"
         y="0"
         x="21.246">X</tspan></text>
<text
       id="text34"
       style="font-variant:normal;font-weight:normal;font-size:11.9552002px;font-family:CMR12;-inkscape-font-specification:CMR12;writing-mode:lr-tb;fill:#000000;fill-opacity:1;fill-rule:nonzero;stroke:none"
       transform="matrix(1,0,0,-1,128.413,575.37)"><tspan
         id="tspan32"
         y="0"
         x="0">L</tspan></text>
<text
       id="text38"
       style="font-variant:normal;font-weight:normal;font-size:7.97009993px;font-family:CMR8;-inkscape-font-specification:CMR8;writing-mode:lr-tb;fill:#000000;fill-opacity:1;fill-rule:nonzero;stroke:none"
       transform="matrix(1,0,0,-1,131.513,578.093)"><tspan
         id="tspan36"
         y="0"
         x="0">A</tspan></text>
<text
       id="text58"
       style="font-variant:normal;font-weight:normal;font-size:11.9552002px;font-family:CMR12;-inkscape-font-specification:CMR12;writing-mode:lr-tb;fill:#000000;fill-opacity:1;fill-rule:nonzero;stroke:none"
       transform="matrix(1,0,0,-1,136.1,575.37)"><tspan
         id="tspan40"
         y="0"
         x="0">T</tspan><tspan
         id="tspan42"
         y="2.5739999"
         x="6.5029998">E</tspan><tspan
         id="tspan44"
         y="0"
         x="13.005 27.159956 30.411772 40.40871 51.641815 58.145443 64.333458 69.536362 76.039986 85.783478 90.986382 97.167213 107.09959 113.60323 118.15577 123.35867 129.8623 135.71556 140.2681 146.12137 150.6739 153.92572 159.77899 171.66246 176.27956 182.45801 187.0751 191.62764 196.83055 211.96584 215.54283 221.39609 231.34042 235.88101 242.38464 252.97934">XisadocumentpreparationsystemfortheT</tspan><tspan
         id="tspan46"
         y="2.5739999"
         x="259.478">E</tspan><tspan
         id="tspan48"
         y="0"
         x="265.979 280.13394 284.36371 290.54214 297.36856 302.57147 307.18857 312.39148 316.94403 321.49655 324.74838 331.25201 342.48511 348.98874 353.54129 359.39453">Xtypesettingpro-</tspan><tspan
         id="tspan50"
         y="14.446"
         x="-25.246 -19.392735 -14.840194 -8.986928 0.76851523 9.926198 14.148775 22.837814 28.69108 35.51989 40.722794 45.275333 54.028931 60.532558 65.085098 70.93837 76.791634 81.34417 87.197441 96.952881 106.70833 112.54964 119.05326 122.30508 131.64449 138.14812 143.35101 147.96811 154.14656 158.6991 164.55237 175.19249 181.69612 188.19975 194.70338 197.9552 201.207 205.82411 212.32773 215.57954 222.08318 232.07294 235.64993 240.85284 246.7061 251.25865 257.76227 262.31482 267.51773 276.27133 282.12457 288.6282 299.26834 304.47125 310.64969 315.20224 320.40512 326.90875 331.52585 334.77768 340.62137 349.96078 353.53778 359.39105">gram.Itofersprogrammabledesktoppublishingfeaturesandextensivefa-</tspan><tspan
         id="tspan52"
         y="28.892"
         x="-25.246 -20.043097 -16.791283 -13.539468 -10.287654 -5.7351136 -2.4832993 2.7196038 11.903588 15.480584 21.333851 30.465233 36.306541 42.810173 47.362713 53.215977 62.97142 68.824684 73.377228 76.629044 83.132668 93.564781 103.32022 109.17348 113.79059 122.91001 128.76328 133.38037 140.2068 145.4097 150.61259 155.16515 164.34912 170.20239 178.35823 182.57602 188.75447 195.58089 200.7838 205.40089 210.60379 215.15634 219.70888 222.96069 229.46432 239.89642 245.74969 252.25333 263.32382 269.82745 275.03036 279.64746 285.82593 290.37845 296.23172 307.30225 313.80588 320.30948 326.81311 330.06494 333.31674 337.93384 344.43747 347.6893 354.19293 360.04617">cilitiesforautomatingmostaspectsoftypesettinganddesktoppublishing,</tspan><tspan
         id="tspan54"
         y="43.338001"
         x="-25.246 -21.994186 -15.490557 -10.287654 -7.0358396 -0.53221059 5.9714184 9.2232323 15.726861 26.206789 32.387627 38.891258 48.32391 55.15033 60.353233 64.905769 68.157585 74.661217 85.141144 90.994408 97.498039 108.64028 113.84319 118.39573 124.24899 128.86609 133.48318 137.38536 141.93791 147.14081 150.7178 155.92072 160.47325 165.67615 172.17978 177.38269 180.63451 187.13812 192.99139 201.04919 205.60175 211.455 217.95863 221.21045 226.41335 235.66907 241.52234 248.02596 259.15625 265.65988 271.51315 278.01678 282.56931 287.77222 292.38931 300.45908 306.96271 312.81598 318.66925 328.49881 331.75061 337.2811 343.13675 348.99002 355.49365 360.04617">includingnumberingandcross-referencing,tablesandfgures,pagelayout,</tspan><tspan
         id="tspan56"
         y="57.783001"
         x="-25.246 -18.742371 -15.490557 -8.986928 -5.7351136 -2.4832993 3.3699667 9.2232323 13.775773 19.629038 26.132668 32.636295 35.888111 41.091015 45.708111 54.973392 60.826656 67.330284 79.440903 88.861603 95.365234 100.24535 112.34401 122.09945 127.95271 132.50525 137.70816 151.2534">bibliographies,andmuchmore.L</tspan></text>
<text
       id="text62"
       style="font-variant:normal;font-weight:normal;font-size:7.97009993px;font-family:CMR8;-inkscape-font-specification:CMR8;writing-mode:lr-tb;fill:#000000;fill-opacity:1;fill-rule:nonzero;stroke:none"
       transform="matrix(1,0,0,-1,290.453,520.31)"><tspan
         id="tspan60"
         y="0"
         x="0">A</tspan></text>
<text
       id="text82"
       style="font-variant:normal;font-weight:normal;font-size:11.9552002px;font-family:CMR12;-inkscape-font-specification:CMR12;writing-mode:lr-tb;fill:#000000;fill-opacity:1;fill-rule:nonzero;stroke:none"
       transform="matrix(1,0,0,-1,295.04,517.587)"><tspan
         id="tspan64"
         y="0"
         x="0">T</tspan><tspan
         id="tspan66"
         y="2.5739999"
         x="6.5029998">E</tspan><tspan
         id="tspan68"
         y="0"
         x="13.004 27.374151 35.506077 41.359344 51.571476 57.42474 61.97728 65.229095 71.082359 74.334175 80.837807 86.691071 89.942886 93.194702 104.96818 113.4229 117.97544 121.22725 125.77979 130.33234 135.53523 147.6339 150.88571 162.99632 168.84959 174.70287 180.55612 192.00443 198.17331">Xwasoriginallywrittenin1984by</tspan><tspan
         id="tspan70"
         y="14.446"
         x="-184.186 -176.87181 -171.6689 -167.0518 -163.79999 -160.54817 -150.41974 -143.10555 -137.25227 -127.49683 -120.67041 -114.81715 -110.26461 -100.77457 -94.921303 -88.417671 -76.988503 -70.484879 -64.631607 -55.08897 -48.26255 -43.059647 -37.856743 -32.003479 -22.248034 -12.107634 -7.5550933 -1.0514643 9.0769815 15.58061 21.433876 31.18932 34.441132 40.944763 46.798027 52.978867 62.456947 72.212395 77.415298 81.967834 88.471466 94.647522 106.07669 109.65369 115.50695 124.99699 131.48866 136.10576 139.35757 145.86121 156.65198">LeslieLamportandhasbecomethedominantmethodforusingT</tspan><tspan
         id="tspan72"
         y="17.02"
         x="163.15199">E</tspan><tspan
         id="tspan74"
         y="14.446"
         x="169.653 178.42812 187.11955 190.69655 195.89944">X;few</tspan><tspan
         id="tspan76"
         y="28.892"
         x="-184.186 -177.35957 -172.15668 -166.30341 -159.79979 -156.54797 -147.44768 -138.99295 -134.44041 -131.1886 -126.63605 -117.5238 -114.27199 -103.87096 -97.36734 -94.115524 -88.26226 -85.010445 -74.609421">peoplewriteinplainT</tspan><tspan
         id="tspan78"
         y="31.466"
         x="-68.101997">E</tspan><tspan
         id="tspan80"
         y="28.892"
         x="-61.601002 -48.92849 -43.075222 -36.894382 -30.715937 -20.960493 -15.107227 -10.554688 -5.3517842 3.1005423 11.55526 18.058889 27.171143 32.374046 38.865719 43.418259 47.970798 53.173702 59.354542 67.816429 73.660133 78.863037 83.415573 88.032677 91.284485 97.137756 107.55074 110.80255 119.31704">Xanymore.ThecurrentversionisL</tspan></text>
<text
       id="text86"
       style="font-variant:normal;font-weight:normal;font-size:7.97009993px;font-family:CMR8;-inkscape-font-specification:CMR8;writing-mode:lr-tb;fill:#000000;fill-opacity:1;fill-rule:nonzero;stroke:none"
       transform="matrix(1,0,0,-1,417.458,491.418)"><tspan
         id="tspan84"
         y="0"
         x="0">A</tspan></text>
<text
       id="text94"
       style="font-variant:normal;font-weight:normal;font-size:11.9552002px;font-family:CMR12;-inkscape-font-specification:CMR12;writing-mode:lr-tb;fill:#000000;fill-opacity:1;fill-rule:nonzero;stroke:none"
       transform="matrix(1,0,0,-1,422.045,488.695)"><tspan
         id="tspan88"
         y="0"
         x="0">T</tspan><tspan
         id="tspan90"
         y="2.5739999"
         x="6.5029998">E</tspan><tspan
         id="tspan92"
         y="0"
         x="13.004 23.536531">X2</tspan></text>
<text
       id="text98"
       style="font-variant:normal;font-weight:normal;font-size:11.9552002px;font-family:CMMI12;-inkscape-font-specification:CMMI12;writing-mode:lr-tb;fill:#000000;fill-opacity:1;fill-rule:nonzero;stroke:none"
       transform="matrix(1,0,0,-1,451.433,486.902)"><tspan
         id="tspan96"
         y="0"
         x="0">ε</tspan></text>
<text
       id="text102"
       style="font-variant:normal;font-weight:normal;font-size:11.9552002px;font-family:CMR12;-inkscape-font-specification:CMR12;writing-mode:lr-tb;fill:#000000;fill-opacity:1;fill-rule:nonzero;stroke:none"
       transform="matrix(1,0,0,-1,457.409,488.695)"><tspan
         id="tspan100"
         y="0"
         x="0">.</tspan></text>
<text
       id="text106"
       style="font-variant:normal;font-weight:normal;font-size:11.9552002px;font-family:CMMI12;-inkscape-font-specification:CMMI12;writing-mode:lr-tb;fill:#000000;fill-opacity:1;fill-rule:nonzero;stroke:none"
       transform="matrix(1,0,0,-1,267.673,447.848)"><tspan
         id="tspan104"
         y="0"
         x="0">E</tspan></text>
<text
       id="text110"
       style="font-variant:normal;font-weight:normal;font-size:7.97009993px;font-family:CMR8;-inkscape-font-specification:CMR8;writing-mode:lr-tb;fill:#000000;fill-opacity:1;fill-rule:nonzero;stroke:none"
       transform="matrix(1,0,0,-1,276.338,446.055)"><tspan
         id="tspan108"
         y="0"
         x="0">0</tspan></text>
<text
       id="text114"
       style="font-variant:normal;font-weight:normal;font-size:11.9552002px;font-family:CMR12;-inkscape-font-specification:CMR12;writing-mode:lr-tb;fill:#000000;fill-opacity:1;fill-rule:nonzero;stroke:none"
       transform="matrix(1,0,0,-1,284.391,447.848)"><tspan
         id="tspan112"
         y="0"
         x="0">=</tspan></text>
<text
       id="text118"
       style="font-variant:normal;font-weight:normal;font-size:11.9552002px;font-family:CMMI12;-inkscape-font-specification:CMMI12;writing-mode:lr-tb;fill:#000000;fill-opacity:1;fill-rule:nonzero;stroke:none"
       transform="matrix(1,0,0,-1,296.817,447.848)"><tspan
         id="tspan116"
         y="0"
         x="0 10.239629">mc</tspan></text>
<text
       id="text122"
       style="font-variant:normal;font-weight:normal;font-size:7.97009993px;font-family:CMR8;-inkscape-font-specification:CMR8;writing-mode:lr-tb;fill:#000000;fill-opacity:1;fill-rule:nonzero;stroke:none"
       transform="matrix(1,0,0,-1,312.094,452.784)"><tspan
         id="tspan120"
         y="0"
         x="0">2</tspan></text>
<text
       id="text126"
       style="font-variant:normal;font-weight:normal;font-size:11.9552002px;font-family:CMR12;-inkscape-font-specification:CMR12;writing-mode:lr-tb;fill:#000000;fill-opacity:1;fill-rule:nonzero;stroke:none"
       transform="matrix(1,0,0,-1,484.44,447.848)"><tspan
         id="tspan124"
         y="0"
         x="0 4.5525403 10.405807">(1)</tspan></text>
<text
       id="text130"
       style="font-variant:normal;font-weight:normal;font-size:11.9552002px;font-family:CMMI12;-inkscape-font-specification:CMMI12;writing-mode:lr-tb;fill:#000000;fill-opacity:1;fill-rule:nonzero;stroke:none"
       transform="matrix(1,0,0,-1,271.704,421.967)"><tspan
         id="tspan128"
         y="0"
         x="0">E</tspan></text>
<text
       id="text134"
       style="font-variant:normal;font-weight:normal;font-size:11.9552002px;font-family:CMR12;-inkscape-font-specification:CMR12;writing-mode:lr-tb;fill:#000000;fill-opacity:1;fill-rule:nonzero;stroke:none"
       transform="matrix(1,0,0,-1,284.391,421.967)"><tspan
         id="tspan132"
         y="0"
         x="0">=</tspan></text>
<text
       id="text138"
       style="font-variant:normal;font-weight:normal;font-size:11.9552002px;font-family:CMMI12;-inkscape-font-specification:CMMI12;writing-mode:lr-tb;fill:#000000;fill-opacity:1;fill-rule:nonzero;stroke:none"
       transform="matrix(1,0,0,-1,309.693,430.055)"><tspan
         id="tspan136"
         y="0"
         x="0 10.239629">mc</tspan></text>
<text
       id="text142"
       style="font-variant:normal;font-weight:normal;font-size:7.97009993px;font-family:CMR8;-inkscape-font-specification:CMR8;writing-mode:lr-tb;fill:#000000;fill-opacity:1;fill-rule:nonzero;stroke:none"
       transform="matrix(1,0,0,-1,324.97,434.393)"><tspan
         id="tspan140"
         y="0"
         x="0">2</tspan></text>
<g
       transform="translate(298.012,424.956)"
       id="g144"><path
         id="path146"
         style="fill:none;stroke:#000000;stroke-width:0.47799999;stroke-linecap:butt;stroke-linejoin:miter;stroke-miterlimit:10;stroke-dasharray:none;stroke-opacity:1"
         d="M 0,0 H 43.372" /></g><text
       id="text150"
       style="font-variant:normal;font-weight:normal;font-size:11.9552002px;font-family:CMEX10;-inkscape-font-specification:CMEX10;writing-mode:lr-tb;fill:#000000;fill-opacity:1;fill-rule:nonzero;stroke:none"
       transform="matrix(1,0,0,-1,298.012,422.325)"><tspan
         id="tspan148"
         y="0"
         x="0">q</tspan></text>
<g
       transform="translate(309.967,422.565)"
       id="g152"><path
         id="path154"
         style="fill:none;stroke:#000000;stroke-width:0.47799999;stroke-linecap:butt;stroke-linejoin:miter;stroke-miterlimit:10;stroke-dasharray:none;stroke-opacity:1"
         d="M 0,0 H 31.416" /></g><text
       id="text158"
       style="font-variant:normal;font-weight:normal;font-size:11.9552002px;font-family:CMR12;-inkscape-font-specification:CMR12;writing-mode:lr-tb;fill:#000000;fill-opacity:1;fill-rule:nonzero;stroke:none"
       transform="matrix(1,0,0,-1,309.967,408.153)"><tspan
         id="tspan156"
         y="0"
         x="0">1</tspan></text>
<text
       id="text162"
       style="font-variant:normal;font-weight:normal;font-size:11.9552002px;font-family:CMSY10;-inkscape-font-specification:CMSY10;writing-mode:lr-tb;fill:#000000;fill-opacity:1;fill-rule:nonzero;stroke:none"
       transform="matrix(1,0,0,-1,318.477,408.153)"><tspan
         id="tspan160"
         y="0"
         x="0">−</tspan></text>
<text
       id="text166"
       style="font-variant:normal;font-weight:normal;font-size:7.97009993px;font-family:CMMI8;-inkscape-font-specification:CMMI8;writing-mode:lr-tb;fill:#000000;fill-opacity:1;fill-rule:nonzero;stroke:none"
       transform="matrix(1,0,0,-1,331.628,412.86)"><tspan
         id="tspan164"
         y="0"
         x="0">v</tspan></text>
<text
       id="text170"
       style="font-variant:normal;font-weight:normal;font-size:5.9776001px;font-family:CMR6;-inkscape-font-specification:CMR6;writing-mode:lr-tb;fill:#000000;fill-opacity:1;fill-rule:nonzero;stroke:none"
       transform="matrix(1,0,0,-1,336.037,415.129)"><tspan
         id="tspan168"
         y="0"
         x="0">2</tspan></text>
<g
       transform="translate(331.628,411.142)"
       id="g172"><path
         id="path174"
         style="fill:none;stroke:#000000;stroke-width:0.47799999;stroke-linecap:butt;stroke-linejoin:miter;stroke-miterlimit:10;stroke-dasharray:none;stroke-opacity:1"
         d="M 0,0 H 8.56" /></g><text
       id="text178"
       style="font-variant:normal;font-weight:normal;font-size:7.97009993px;font-family:CMMI8;-inkscape-font-specification:CMMI8;writing-mode:lr-tb;fill:#000000;fill-opacity:1;fill-rule:nonzero;stroke:none"
       transform="matrix(1,0,0,-1,331.998,404.03)"><tspan
         id="tspan176"
         y="0"
         x="0">c</tspan></text>
<text
       id="text182"
       style="font-variant:normal;font-weight:normal;font-size:5.9776001px;font-family:CMR6;-inkscape-font-specification:CMR6;writing-mode:lr-tb;fill:#000000;fill-opacity:1;fill-rule:nonzero;stroke:none"
       transform="matrix(1,0,0,-1,335.666,406.3)"><tspan
         id="tspan180"
         y="0"
         x="0">2</tspan></text>
<text
       id="text188"
       style="font-variant:normal;font-weight:normal;font-size:11.9552002px;font-family:CMR12;-inkscape-font-specification:CMR12;writing-mode:lr-tb;fill:#000000;fill-opacity:1;fill-rule:nonzero;stroke:none"
       transform="matrix(1,0,0,-1,484.44,421.967)"><tspan
         id="tspan184"
         y="0"
         x="0 4.5525403 10.405807">(2)</tspan><tspan
         id="tspan186"
         y="282.21399"
         x="-182.241">1</tspan></text>
</g></svg>