<?xml version="1.0" encoding="UTF-8" standalone="no"?>
<!DOCTYPE svg PUBLIC "-//W3C//DTD SVG 1.0//EN" "http://www.w3.org/TR/2001/PR-SVG-20010719/DTD/svg10.dtd">
<svg width="27cm" height="14cm" viewBox="98 48 524 264" xmlns="http://www.w3.org/2000/svg" xmlns:xlink="http://www.w3.org/1999/xlink">
  <g>
    <rect style="fill: #ffffff" x="300" y="50" width="100" height="110"/>
    <rect style="fill: none; fill-opacity:0; stroke-width: 4; stroke: #000000" x="300" y="50" width="100" height="110"/>
    <text font-size="12.8" style="fill: #000000;text-anchor:middle;font-family:sans-serif;font-style:normal;font-weight:normal" x="350" y="108.9">
      <tspan x="350" y="108.9"></tspan>
    </text>
  </g>
  <g>
    <rect style="fill: #ffffff" x="100" y="100" width="120" height="210"/>
    <rect style="fill: none; fill-opacity:0; stroke-width: 4; stroke: #000000" x="100" y="100" width="120" height="210"/>
    <text font-size="12.8" style="fill: #000000;text-anchor:middle;font-family:sans-serif;font-style:normal;font-weight:normal" x="160" y="208.9">
      <tspan x="160" y="208.9"></tspan>
    </text>
  </g>
  <g>
    <rect style="fill: #ffffff" x="500" y="100" width="120" height="210"/>
    <rect style="fill: none; fill-opacity:0; stroke-width: 4; stroke: #000000" x="500" y="100" width="120" height="210"/>
    <text font-size="12.8" style="fill: #000000;text-anchor:middle;font-family:sans-serif;font-style:normal;font-weight:normal" x="560" y="208.9">
      <tspan x="560" y="208.9"></tspan>
    </text>
  </g>
  <g>
    <line style="fill: none; fill-opacity:0; stroke-width: 4; stroke: #000000" x1="490.99" y1="197.116" x2="380" y2="100"/>
    <polygon style="fill: #000000" points="496.634,202.055 485.816,199.233 490.99,197.116 492.401,191.707 "/>
    <polygon style="fill: none; fill-opacity:0; stroke-width: 4; stroke: #000000" points="496.634,202.055 485.816,199.233 490.99,197.116 492.401,191.707 "/>
  </g>
  <g>
    <line style="fill: none; fill-opacity:0; stroke-width: 4; stroke: #000000" x1="228.257" y1="196.331" x2="320" y2="100"/>
    <polygon style="fill: #000000" points="223.084,201.762 226.36,191.072 228.257,196.331 233.601,197.968 "/>
    <polygon style="fill: none; fill-opacity:0; stroke-width: 4; stroke: #000000" points="223.084,201.762 226.36,191.072 228.257,196.331 233.601,197.968 "/>
  </g>
</svg>
