<?xml version="1.0" encoding="UTF-8" standalone="no"?>
<!DOCTYPE svg PUBLIC "-//W3C//DTD SVG 1.0//EN" "http://www.w3.org/TR/2001/PR-SVG-20010719/DTD/svg10.dtd">
<svg width="12cm" height="8cm" viewBox="1536 208 236 143" xmlns="http://www.w3.org/2000/svg" xmlns:xlink="http://www.w3.org/1999/xlink">
  <g>
    <path style="fill: #ffffff" d="M 1699.57 228 L 1758.52,228 C 1767.37,248.8 1770.31,259.2 1770.31,280 C 1770.31,300.8 1767.37,311.2 1758.52,332 L 1699.57,332 L 1687.78,280 L 1699.57,228z"/>
    <path style="fill: none; fill-opacity:0; stroke-width: 2; stroke: #000000" d="M 1699.57 228 L 1758.52,228 C 1767.37,248.8 1770.31,259.2 1770.31,280 C 1770.31,300.8 1767.37,311.2 1758.52,332 L 1699.57,332 L 1687.78,280 L 1699.57,228"/>
    <text font-size="12.8" style="fill: #000000;text-anchor:middle;font-family:sans-serif;font-style:normal;font-weight:normal" x="1729.05" y="268">
      <tspan x="1729.05" y="268">Output</tspan>
      <tspan x="1729.05" y="284">(media</tspan>
      <tspan x="1729.05" y="300">domain)</tspan>
    </text>
  </g>
  <g>
    <polygon style="fill: #ffffff" points="1575.1,228 1699.12,228 1661.27,332 1537.25,332 "/>
    <polygon style="fill: none; fill-opacity:0; stroke-width: 2; stroke: #000000" points="1575.1,228 1699.12,228 1661.27,332 1537.25,332 "/>
    <text font-size="12.8" style="fill: #000000;text-anchor:middle;font-family:sans-serif;font-style:normal;font-weight:normal" x="1618.18" y="251.9">
      <tspan x="1618.18" y="251.9">Page</tspan>
      <tspan x="1618.18" y="267.9">Description</tspan>
      <tspan x="1618.18" y="283.9">Language</tspan>
      <tspan x="1618.18" y="299.9">(media</tspan>
      <tspan x="1618.18" y="315.9">domain)</tspan>
    </text>
  </g>
  <text font-size="12.8" style="fill: #000000;text-anchor:start;font-family:sans-serif;font-style:normal;font-weight:normal" x="1652" y="220">
    <tspan x="1652" y="220">Rendering</tspan>
  </text>
  <g>
    <line style="fill: none; fill-opacity:0; stroke-width: 2; stroke: #000000" x1="1540" y1="343.482" x2="1755.53" y2="343.482"/>
    <polyline style="fill: none; fill-opacity:0; stroke-width: 2; stroke: #000000" points="1747.76,348.482 1757.76,343.482 1747.76,338.482 "/>
  </g>
</svg>
