<?xml version="1.0" encoding="UTF-8" standalone="no"?>
<!-- Created with Inkscape (http://www.inkscape.org/) -->

<svg
   xmlns:dc="http://purl.org/dc/elements/1.1/"
   xmlns:cc="http://creativecommons.org/ns#"
   xmlns:rdf="http://www.w3.org/1999/02/22-rdf-syntax-ns#"
   xmlns:svg="http://www.w3.org/2000/svg"
   xmlns="http://www.w3.org/2000/svg"
   xmlns:sodipodi="http://sodipodi.sourceforge.net/DTD/sodipodi-0.dtd"
   xmlns:inkscape="http://www.inkscape.org/namespaces/inkscape"
   width="65.166962mm"
   height="38.34108mm"
   viewBox="0 0 230.90656 135.85422"
   id="svg2"
   version="1.1"
   inkscape:version="0.91 r13725"
   sodipodi:docname="search.svg">
  <defs
     id="defs4" />
  <sodipodi:namedview
     id="base"
     pagecolor="#ffffff"
     bordercolor="#666666"
     borderopacity="1.0"
     inkscape:pageopacity="0.0"
     inkscape:pageshadow="2"
     inkscape:zoom="2.8"
     inkscape:cx="137.067"
     inkscape:cy="71.520025"
     inkscape:document-units="px"
     inkscape:current-layer="layer1"
     showgrid="false"
     inkscape:window-width="1304"
     inkscape:window-height="745"
     inkscape:window-x="-8"
     inkscape:window-y="-8"
     inkscape:window-maximized="1"
     fit-margin-top="0"
     fit-margin-left="0"
     fit-margin-right="0"
     fit-margin-bottom="0" />
  <metadata
     id="metadata7">
    <rdf:RDF>
      <cc:Work
         rdf:about="">
        <dc:format>image/svg+xml</dc:format>
        <dc:type
           rdf:resource="http://purl.org/dc/dcmitype/StillImage" />
        <dc:title></dc:title>
      </cc:Work>
    </rdf:RDF>
  </metadata>
  <g
     inkscape:label="Layer 1"
     inkscape:groupmode="layer"
     id="layer1"
     transform="translate(-260.6897,-477.508)">
    <path
       id="path4136-2"
       style="opacity:1;fill:#ffffff;fill-opacity:1;stroke:#000000;stroke-width:2;stroke-miterlimit:4;stroke-dasharray:none;stroke-opacity:1"
       d="m 461.60433,555.48589 a 56.050099,56.159395 0 0 1 -56.0501,56.1594 56.050099,56.159395 0 0 1 -56.05009,-56.1594 56.050099,56.159395 0 0 1 56.05009,-56.15939 56.050099,56.159395 0 0 1 56.0501,56.15939 z m -57.00414,0.71692 a 56.050099,56.159395 0 0 1 -56.0501,56.1594 56.050099,56.159395 0 0 1 -56.0501,-56.1594 56.050099,56.159395 0 0 1 56.0501,-56.1594 56.050099,56.159395 0 0 1 56.0501,56.1594 z"
       inkscape:connector-curvature="0" />
    <path
       style="opacity:1;fill:#000000;fill-opacity:0.40236691;stroke:none;stroke-width:0;stroke-miterlimit:4;stroke-dasharray:none;stroke-opacity:1"
       d="m 374.02342,599.9109 c -4.51192,-3.17478 -9.56518,-8.23758 -12.78724,-12.81139 -15.2202,-21.60552 -13.12994,-50.02278 5.10402,-69.38942 3.48451,-3.70097 8.97615,-8.02728 10.19836,-8.03425 1.23227,-0.007 7.95013,5.27326 11.48348,9.02611 19.42959,20.63655 20.0478,51.80065 1.45688,73.44105 -2.63055,3.06203 -7.72349,7.57521 -10.68529,9.46889 -1.2098,0.77352 -1.29837,0.74193 -4.77021,-1.70099 z"
       id="path4178"
       inkscape:connector-curvature="0" />
    <text
       xml:space="preserve"
       style="font-style:normal;font-weight:normal;font-size:40px;line-height:125%;font-family:Sans;letter-spacing:0px;word-spacing:0px;fill:#000000;fill-opacity:1;stroke:none;stroke-width:1px;stroke-linecap:butt;stroke-linejoin:miter;stroke-opacity:1"
       x="260"
       y="487.00507"
       id="text4180"
       sodipodi:linespacing="125%"><tspan
         sodipodi:role="line"
         x="260"
         y="487.00507"
         id="tspan4184"
         style="font-size:12.5px">Matching</tspan><tspan
         sodipodi:role="line"
         x="260"
         y="502.63007"
         style="font-size:12.5px"
         id="tspan4188">content</tspan></text>
    <text
       xml:space="preserve"
       style="font-style:normal;font-weight:normal;font-size:40px;line-height:125%;font-family:Sans;letter-spacing:0px;word-spacing:0px;fill:#000000;fill-opacity:1;stroke:none;stroke-width:1px;stroke-linecap:butt;stroke-linejoin:miter;stroke-opacity:1"
       x="449.67731"
       y="490.63831"
       id="text4180-7"
       sodipodi:linespacing="125%"><tspan
         sodipodi:role="line"
         x="449.67731"
         y="490.63831"
         id="tspan4184-8"
         style="font-size:12.5px">Search</tspan><tspan
         sodipodi:role="line"
         x="449.67731"
         y="506.26331"
         style="font-size:12.5px"
         id="tspan4188-8">results</tspan></text>
    <text
       xml:space="preserve"
       style="font-style:normal;font-weight:normal;font-size:40px;line-height:125%;font-family:Sans;letter-spacing:0px;word-spacing:0px;fill:#000000;fill-opacity:1;stroke:none;stroke-width:1px;stroke-linecap:butt;stroke-linejoin:miter;stroke-opacity:1"
       x="357.89157"
       y="487.42401"
       id="text4180-1"
       sodipodi:linespacing="125%"><tspan
         sodipodi:role="line"
         x="357.89157"
         y="487.42401"
         style="font-size:12.5px"
         id="tspan4188-6">Useful</tspan></text>
  </g>
</svg>
