<?xml version="1.0" encoding="UTF-8" standalone="no"?>
<!DOCTYPE svg PUBLIC "-//W3C//DTD SVG 1.0//EN" "http://www.w3.org/TR/2001/PR-SVG-20010719/DTD/svg10.dtd">
<svg width="42cm" height="15cm" viewBox="97 237 836 286" xmlns="http://www.w3.org/2000/svg" xmlns:xlink="http://www.w3.org/1999/xlink">
  <line style="fill: none; fill-opacity:0; stroke-width: 4; stroke: #000000" x1="100" y1="299" x2="760" y2="300"/>
  <line style="fill: none; fill-opacity:0; stroke-width: 4; stroke: #000000" x1="140" y1="300" x2="260" y2="420"/>
  <line style="fill: none; fill-opacity:0; stroke-width: 4; stroke: #000000" x1="320" y1="240" x2="320" y2="360"/>
  <line style="fill: none; fill-opacity:0; stroke-width: 4; stroke: #000000" x1="440" y1="240" x2="500" y2="300"/>
  <line style="fill: none; fill-opacity:0; stroke-width: 4; stroke: #000000" x1="540" y1="299.826" x2="660" y2="419.826"/>
  <line style="fill: none; fill-opacity:0; stroke-width: 4; stroke: #000000" x1="660" y1="419.826" x2="856" y2="420.826"/>
  <line style="fill: none; fill-opacity:0; stroke-width: 4; stroke: #000000" x1="700" y1="419.826" x2="800" y2="519.826"/>
  <line style="fill: none; fill-opacity:0; stroke-width: 4; stroke: #000000" x1="800" y1="419.826" x2="900" y2="519.826"/>
  <text font-size="12.7998" style="fill: #000000;text-anchor:start;font-family:sans-serif;font-style:normal;font-weight:normal" x="240" y="260">
    <tspan x="240" y="260"></tspan>
  </text>
  <g>
    <path style="fill: #000000" d="M 204.21 351.288 L 225.014,330.527 L 217.184,322.748 L 220,320 L 238.645,338.685 L 235.891,341.386 L 228.109,333.668 L 207.366,354.381 L 204.21,351.288z"/>
    <path style="fill: #000000" d="M 217.944 364.976 L 241.455,341.454 L 244.36,344.346 L 235.945,352.761 C 238.818,352.528 241.312,353.471 243.38,355.529 C 244.549,356.798 245.375,358.133 245.906,359.597 C 246.28,360.984 246.215,362.312 245.822,363.598 C 245.21,364.854 244.178,366.333 242.617,368.021 L 231.821,378.851 L 228.916,375.959 L 239.76,365.191 C 241.135,363.646 241.871,362.294 241.921,361.075 C 241.924,359.794 241.364,358.549 240.29,357.404 C 239.405,356.507 238.368,355.924 237.178,355.654 C 235.94,355.323 234.816,355.397 233.805,355.876 C 232.637,356.279 231.397,357.229 230.16,358.57 L 220.849,367.869 L 217.944,364.976z"/>
    <path style="fill: #000000" d="M 253.321 389.444 L 255.996,392.808 C 253.664,394.004 251.42,394.542 249.229,394.252 C 246.977,394.009 244.902,392.843 242.944,390.8 C 240.434,388.295 239.186,385.51 239.297,382.572 C 239.36,379.571 240.799,376.697 243.615,373.949 C 246.398,371.03 249.321,369.578 252.46,369.436 C 255.475,369.39 258.222,370.534 260.651,372.806 C 262.8,375.097 263.905,377.695 263.841,380.696 C 263.716,383.744 262.215,386.666 259.509,389.428 C 259.261,389.618 259.06,389.87 258.735,390.217 L 246.042,377.502 C 244.219,379.49 243.238,381.422 243.258,383.375 C 243.169,385.313 243.889,387.025 245.373,388.447 C 246.352,389.469 247.499,390.066 248.861,390.302 C 250.113,390.524 251.595,390.274 253.321,389.444 L 253.321,389.444z"/>
    <path style="fill: #ffffff" d="M 248.566 375.273 L 258.055,384.833 C 259.259,383.321 259.962,381.798 260.198,380.436 C 260.302,378.388 259.691,376.691 258.27,375.221 C 256.881,373.923 255.296,373.267 253.577,373.206 C 251.733,373.241 250.084,373.914 248.566,375.273z"/>
    <path style="fill: none; fill-opacity:0; stroke-width: 0.02; stroke-linecap: round; stroke: #000000" d="M 204.21 351.288 L 225.014,330.527 L 217.184,322.748 L 220,320 L 238.645,338.685 L 235.891,341.386 L 228.109,333.668 L 207.366,354.381 L 204.21,351.288"/>
    <path style="fill: none; fill-opacity:0; stroke-width: 0.02; stroke-linecap: round; stroke: #000000" d="M 217.944 364.976 L 241.455,341.454 L 244.36,344.346 L 235.945,352.761 C 238.818,352.528 241.312,353.471 243.38,355.529 C 244.549,356.798 245.375,358.133 245.906,359.597 C 246.28,360.984 246.215,362.312 245.822,363.598 C 245.21,364.854 244.178,366.333 242.617,368.021 L 231.821,378.851 L 228.916,375.959 L 239.76,365.191 C 241.135,363.646 241.871,362.294 241.921,361.075 C 241.924,359.794 241.364,358.549 240.29,357.404 C 239.405,356.507 238.368,355.924 237.178,355.654 C 235.94,355.323 234.816,355.397 233.805,355.876 C 232.637,356.279 231.397,357.229 230.16,358.57 L 220.849,367.869 L 217.944,364.976"/>
    <path style="fill: none; fill-opacity:0; stroke-width: 0.02; stroke-linecap: round; stroke: #000000" d="M 253.321 389.444 L 255.996,392.808 C 253.664,394.004 251.42,394.542 249.229,394.252 C 246.977,394.009 244.902,392.843 242.944,390.8 C 240.434,388.295 239.186,385.51 239.297,382.572 C 239.36,379.571 240.799,376.697 243.615,373.949 C 246.398,371.03 249.321,369.578 252.46,369.436 C 255.475,369.39 258.222,370.534 260.651,372.806 C 262.8,375.097 263.905,377.695 263.841,380.696 C 263.716,383.744 262.215,386.666 259.509,389.428 C 259.261,389.618 259.06,389.87 258.735,390.217 L 246.042,377.502 C 244.219,379.49 243.238,381.422 243.258,383.375 C 243.169,385.313 243.889,387.025 245.373,388.447 C 246.352,389.469 247.499,390.066 248.861,390.302 C 250.113,390.524 251.595,390.274 253.321,389.444 L 253.321,389.444"/>
    <path style="fill: none; fill-opacity:0; stroke-width: 0.02; stroke-linecap: round; stroke: #000000" d="M 248.566 375.273 L 258.055,384.833 C 259.259,383.321 259.962,381.798 260.198,380.436 C 260.302,378.388 259.691,376.691 258.27,375.221 C 256.881,373.923 255.296,373.267 253.577,373.206 C 251.733,373.241 250.084,373.914 248.566,375.273 L 248.566,375.273"/>
  </g>
  <g>
    <path style="fill: #000000" d="M 601.652 348.546 L 613.457,326.315 L 616.456,329.332 L 609.334,341.874 L 606.71,346.541 C 606.834,346.446 608.293,345.525 611.074,343.887 L 623.797,336.601 L 626.749,339.555 L 619.408,352.068 L 617.027,356.155 L 621.238,353.815 L 634.027,346.872 L 636.884,349.702 L 614.488,361.447 L 611.488,358.431 L 618.997,345.494 L 621.195,341.94 L 604.652,351.563 L 601.652,348.546z"/>
    <path style="fill: #000000" d="M 642.44 348.989 L 645.719,345.69 L 648.624,348.582 L 645.345,351.881 L 642.44,348.989z"/>
    <path style="fill: #000000" d="M 622.208 369.212 L 639.285,352.193 L 642.19,355.085 L 625.113,372.105 L 622.208,369.212z"/>
    <path style="fill: #000000" d="M 638.477 380.172 L 636.352,383.178 C 635.267,382.533 634.463,381.869 633.878,381.234 C 632.79,380.199 632.139,379.221 631.926,378.301 C 631.604,377.367 631.596,376.586 631.979,375.8 C 632.19,375.048 633.255,373.74 635.097,372.034 L 644.872,362.183 L 642.756,360.064 L 644.999,357.854 L 647.115,359.973 L 651.353,355.742 L 655.943,356.851 L 649.972,362.803 L 652.924,365.758 L 650.681,367.968 L 647.776,365.076 L 637.768,375.007 C 636.885,375.781 636.422,376.333 636.364,376.771 C 636.211,377.085 636.215,377.476 636.281,377.819 C 636.347,378.162 636.57,378.582 637.012,379.03 C 637.359,379.355 637.816,379.694 638.477,380.172 L 638.477,380.172z"/>
    <path style="fill: #000000" d="M 638.643 385.655 L 662.153,362.132 L 665.058,365.024 L 656.644,373.439 C 659.516,373.206 662.011,374.15 664.079,376.207 C 665.248,377.476 666.074,378.811 666.605,380.275 C 666.978,381.662 666.914,382.99 666.521,384.276 C 665.908,385.532 664.877,387.012 663.316,388.699 L 652.52,399.529 L 649.615,396.637 L 660.458,385.869 C 661.833,384.324 662.57,382.972 662.62,381.753 C 662.622,380.472 662.062,379.227 660.988,378.082 C 660.104,377.185 659.067,376.602 657.876,376.333 C 656.639,376.001 655.514,376.075 654.504,376.554 C 653.336,376.957 652.095,377.907 650.859,379.248 L 641.547,388.547 L 638.643,385.655z"/>
    <path style="fill: none; fill-opacity:0; stroke-width: 0.02; stroke-linecap: round; stroke: #000000" d="M 601.652 348.546 L 613.457,326.315 L 616.456,329.332 L 609.334,341.874 L 606.71,346.541 C 606.834,346.446 608.293,345.525 611.074,343.887 L 623.797,336.601 L 626.749,339.555 L 619.408,352.068 L 617.027,356.155 L 621.238,353.815 L 634.027,346.872 L 636.884,349.702 L 614.488,361.447 L 611.488,358.431 L 618.997,345.494 L 621.195,341.94 L 604.652,351.563 L 601.652,348.546"/>
    <path style="fill: none; fill-opacity:0; stroke-width: 0.02; stroke-linecap: round; stroke: #000000" d="M 642.44 348.989 L 645.719,345.69 L 648.624,348.582 L 645.345,351.881 L 642.44,348.989"/>
    <path style="fill: none; fill-opacity:0; stroke-width: 0.02; stroke-linecap: round; stroke: #000000" d="M 622.208 369.212 L 639.285,352.193 L 642.19,355.085 L 625.113,372.105 L 622.208,369.212"/>
    <path style="fill: none; fill-opacity:0; stroke-width: 0.02; stroke-linecap: round; stroke: #000000" d="M 638.477 380.172 L 636.352,383.178 C 635.267,382.533 634.463,381.869 633.878,381.234 C 632.79,380.199 632.139,379.221 631.926,378.301 C 631.604,377.367 631.596,376.586 631.979,375.8 C 632.19,375.048 633.255,373.74 635.097,372.034 L 644.872,362.183 L 642.756,360.064 L 644.999,357.854 L 647.115,359.973 L 651.353,355.742 L 655.943,356.851 L 649.972,362.803 L 652.924,365.758 L 650.681,367.968 L 647.776,365.076 L 637.768,375.007 C 636.885,375.781 636.422,376.333 636.364,376.771 C 636.211,377.085 636.215,377.476 636.281,377.819 C 636.347,378.162 636.57,378.582 637.012,379.03 C 637.359,379.355 637.816,379.694 638.477,380.172 L 638.477,380.172"/>
    <path style="fill: none; fill-opacity:0; stroke-width: 0.02; stroke-linecap: round; stroke: #000000" d="M 638.643 385.655 L 662.153,362.132 L 665.058,365.024 L 656.644,373.439 C 659.516,373.206 662.011,374.15 664.079,376.207 C 665.248,377.476 666.074,378.811 666.605,380.275 C 666.978,381.662 666.914,382.99 666.521,384.276 C 665.908,385.532 664.877,387.012 663.316,388.699 L 652.52,399.529 L 649.615,396.637 L 660.458,385.869 C 661.833,384.324 662.57,382.972 662.62,381.753 C 662.622,380.472 662.062,379.227 660.988,378.082 C 660.104,377.185 659.067,376.602 657.876,376.333 C 656.639,376.001 655.514,376.075 654.504,376.554 C 653.336,376.957 652.095,377.907 650.859,379.248 L 641.547,388.547 L 638.643,385.655"/>
  </g>
  <g>
    <path style="fill: #000000" d="M 766.982 468.695 L 764.856,471.701 C 763.771,471.056 762.968,470.392 762.383,469.758 C 761.294,468.722 760.644,467.744 760.431,466.824 C 760.109,465.89 760.101,465.109 760.484,464.324 C 760.695,463.572 761.76,462.264 763.602,460.557 L 773.376,450.707 L 771.261,448.588 L 773.504,446.377 L 775.62,448.496 L 779.858,444.265 L 784.448,445.375 L 778.477,451.327 L 781.429,454.281 L 779.186,456.492 L 776.281,453.599 L 766.273,463.53 C 765.39,464.305 764.927,464.856 764.869,465.295 C 764.716,465.609 764.72,465.999 764.786,466.342 C 764.852,466.685 765.075,467.105 765.517,467.554 C 765.864,467.878 766.321,468.217 766.982,468.695 L 766.982,468.695z"/>
    <path style="fill: #000000" d="M 767.209 474.13 L 790.72,450.608 L 793.625,453.5 L 785.21,461.915 C 788.083,461.682 790.577,462.625 792.645,464.682 C 793.815,465.952 794.641,467.287 795.171,468.751 C 795.545,470.138 795.48,471.466 795.087,472.752 C 794.475,474.008 793.443,475.487 791.882,477.175 L 781.086,488.005 L 778.182,485.113 L 789.025,474.345 C 790.4,472.8 791.136,471.448 791.186,470.229 C 791.189,468.948 790.629,467.703 789.555,466.558 C 788.671,465.661 787.634,465.077 786.443,464.808 C 785.205,464.477 784.081,464.551 783.07,465.03 C 781.902,465.433 780.662,466.383 779.426,467.724 L 770.114,477.023 L 767.209,474.13z"/>
    <path style="fill: #000000" d="M 802.586 498.598 L 805.261,501.962 C 802.93,503.158 800.685,503.696 798.495,503.406 C 796.242,503.163 794.167,501.997 792.209,499.954 C 789.699,497.449 788.452,494.664 788.562,491.726 C 788.625,488.725 790.065,485.851 792.881,483.103 C 795.663,480.184 798.586,478.732 801.725,478.59 C 804.741,478.544 807.487,479.688 809.917,481.96 C 812.065,484.251 813.17,486.849 813.107,489.85 C 812.982,492.898 811.48,495.82 808.774,498.582 C 808.526,498.772 808.325,499.024 808.001,499.371 L 795.308,486.656 C 793.484,488.644 792.504,490.576 792.524,492.529 C 792.434,494.467 793.155,496.179 794.638,497.601 C 795.617,498.623 796.764,499.22 798.126,499.456 C 799.378,499.678 800.86,499.428 802.586,498.598 L 802.586,498.598z"/>
    <path style="fill: #ffffff" d="M 797.832 484.427 L 807.321,493.987 C 808.524,492.475 809.227,490.952 809.463,489.59 C 809.567,487.542 808.956,485.845 807.535,484.375 C 806.147,483.077 804.562,482.421 802.842,482.36 C 800.999,482.395 799.349,483.068 797.832,484.427z"/>
    <path style="fill: none; fill-opacity:0; stroke-width: 0.02; stroke-linecap: round; stroke: #000000" d="M 766.982 468.695 L 764.856,471.701 C 763.771,471.056 762.968,470.392 762.383,469.758 C 761.294,468.722 760.644,467.744 760.431,466.824 C 760.109,465.89 760.101,465.109 760.484,464.324 C 760.695,463.572 761.76,462.264 763.602,460.557 L 773.376,450.707 L 771.261,448.588 L 773.504,446.377 L 775.62,448.496 L 779.858,444.265 L 784.448,445.375 L 778.477,451.327 L 781.429,454.281 L 779.186,456.492 L 776.281,453.599 L 766.273,463.53 C 765.39,464.305 764.927,464.856 764.869,465.295 C 764.716,465.609 764.72,465.999 764.786,466.342 C 764.852,466.685 765.075,467.105 765.517,467.554 C 765.864,467.878 766.321,468.217 766.982,468.695 L 766.982,468.695"/>
    <path style="fill: none; fill-opacity:0; stroke-width: 0.02; stroke-linecap: round; stroke: #000000" d="M 767.209 474.13 L 790.72,450.608 L 793.625,453.5 L 785.21,461.915 C 788.083,461.682 790.577,462.625 792.645,464.682 C 793.815,465.952 794.641,467.287 795.171,468.751 C 795.545,470.138 795.48,471.466 795.087,472.752 C 794.475,474.008 793.443,475.487 791.882,477.175 L 781.086,488.005 L 778.182,485.113 L 789.025,474.345 C 790.4,472.8 791.136,471.448 791.186,470.229 C 791.189,468.948 790.629,467.703 789.555,466.558 C 788.671,465.661 787.634,465.077 786.443,464.808 C 785.205,464.477 784.081,464.551 783.07,465.03 C 781.902,465.433 780.662,466.383 779.426,467.724 L 770.114,477.023 L 767.209,474.13"/>
    <path style="fill: none; fill-opacity:0; stroke-width: 0.02; stroke-linecap: round; stroke: #000000" d="M 802.586 498.598 L 805.261,501.962 C 802.93,503.158 800.685,503.696 798.495,503.406 C 796.242,503.163 794.167,501.997 792.209,499.954 C 789.699,497.449 788.452,494.664 788.562,491.726 C 788.625,488.725 790.065,485.851 792.881,483.103 C 795.663,480.184 798.586,478.732 801.725,478.59 C 804.741,478.544 807.487,479.688 809.917,481.96 C 812.065,484.251 813.17,486.849 813.107,489.85 C 812.982,492.898 811.48,495.82 808.774,498.582 C 808.526,498.772 808.325,499.024 808.001,499.371 L 795.308,486.656 C 793.484,488.644 792.504,490.576 792.524,492.529 C 792.434,494.467 793.155,496.179 794.638,497.601 C 795.617,498.623 796.764,499.22 798.126,499.456 C 799.378,499.678 800.86,499.428 802.586,498.598 L 802.586,498.598"/>
    <path style="fill: none; fill-opacity:0; stroke-width: 0.02; stroke-linecap: round; stroke: #000000" d="M 797.832 484.427 L 807.321,493.987 C 808.524,492.475 809.227,490.952 809.463,489.59 C 809.567,487.542 808.956,485.845 807.535,484.375 C 806.147,483.077 804.562,482.421 802.842,482.36 C 800.999,482.395 799.349,483.068 797.832,484.427 L 797.832,484.427"/>
  </g>
  <g>
    <path style="fill: #000000" d="M 839.334 442.606 L 841.695,445.817 C 840.955,446.778 840.605,447.734 840.756,448.702 C 840.877,449.888 841.608,451.099 842.935,452.445 C 844.214,453.729 845.503,454.513 846.755,454.734 C 848.022,454.846 849.223,454.615 850.529,454.008 C 851.211,453.486 852.528,452.378 854.447,450.515 C 851.636,450.7 849.299,449.833 847.483,447.977 C 845.068,445.595 844.087,442.902 844.588,439.959 C 844.871,436.987 846.328,434.394 848.758,432.041 C 850.414,430.477 852.198,429.209 854.143,428.407 C 856.088,427.606 858.008,427.415 859.855,427.771 C 861.703,428.127 863.368,429.016 864.947,430.563 C 866.858,432.543 867.696,435.05 867.476,437.975 L 869.533,435.907 L 872.185,438.599 L 857.476,453.312 C 854.722,456.012 852.675,457.58 851.04,458.144 C 849.42,458.598 847.638,458.585 845.853,458.181 C 844.034,457.606 842.288,456.483 840.553,454.86 C 838.499,452.694 837.322,450.643 836.988,448.537 C 836.669,446.321 837.43,444.36 839.334,442.606 L 839.334,442.606z"/>
    <path style="fill: #ffffff" d="M 851.91 434.743 C 849.667,436.954 848.391,439.014 848.302,440.952 C 848.103,442.876 848.776,444.526 850.164,445.824 C 851.429,447.217 853.028,447.764 854.996,447.634 C 856.854,447.49 858.952,446.375 861.195,444.164 C 863.252,442.096 864.356,440.069 864.508,438.083 C 864.597,436.145 863.972,434.557 862.755,433.226 C 861.367,431.928 859.72,431.319 857.862,431.463 C 855.832,431.64 853.906,432.723 851.91,434.743z"/>
    <path style="fill: #000000" d="M 866.946 450.387 C 870.087,447.292 873.29,445.822 876.605,446.038 C 879.311,446.229 881.666,447.377 883.829,449.558 C 886.087,451.863 887.239,454.524 887.286,457.539 C 887.161,460.587 885.831,463.476 883.139,466.129 C 880.896,468.339 878.816,469.736 876.948,470.38 C 875.032,470.962 873.079,470.982 871.151,470.392 C 869.161,469.85 867.462,468.789 866.041,467.319 C 863.578,464.875 862.426,462.215 862.537,459.276 C 862.552,456.214 864.054,453.292 866.946,450.387 L 866.946,450.387z"/>
    <path style="fill: #ffffff" d="M 869.946 453.403 C 867.655,455.552 866.489,457.627 866.385,459.675 C 866.171,461.708 866.83,463.467 868.361,464.951 C 869.735,466.359 871.429,467.03 873.568,466.867 C 875.536,466.738 877.696,465.575 880.001,463.317 C 882.058,461.249 883.224,459.174 883.39,457.079 C 883.494,455.031 882.836,453.272 881.4,451.911 C 879.869,450.427 878.113,449.804 876.145,449.934 C 874.116,450.111 872.017,451.226 869.946,453.403z"/>
    <path style="fill: #000000" d="M 885.259 468.638 C 888.399,465.544 891.603,464.073 894.918,464.289 C 897.623,464.48 899.979,465.628 902.142,467.809 C 904.4,470.115 905.552,472.775 905.598,475.79 C 905.473,478.839 904.143,481.727 901.452,484.38 C 899.209,486.59 897.129,487.987 895.26,488.631 C 893.344,489.213 891.391,489.233 889.463,488.643 C 887.473,488.101 885.775,487.04 884.354,485.57 C 881.891,483.127 880.739,480.466 880.849,477.528 C 880.865,474.465 882.366,471.543 885.259,468.638 L 885.259,468.638z"/>
    <path style="fill: #ffffff" d="M 888.258 471.655 C 885.968,473.803 884.801,475.878 884.697,477.926 C 884.484,479.959 885.142,481.718 886.673,483.203 C 888.047,484.611 889.742,485.281 891.881,485.118 C 893.848,484.989 896.008,483.826 898.313,481.568 C 900.37,479.5 901.537,477.426 901.703,475.33 C 901.807,473.282 901.148,471.523 899.713,470.163 C 898.182,468.678 896.425,468.055 894.458,468.185 C 892.428,468.362 890.33,469.477 888.258,471.655z"/>
    <path style="fill: #000000" d="M 907.065 507.636 L 909.246,505.473 C 906.439,506.049 904.025,505.339 901.957,503.282 C 900.522,501.922 899.629,500.243 899.266,498.356 C 898.856,496.407 898.993,494.531 899.754,492.57 C 900.453,490.656 901.7,488.815 903.495,487.047 C 905.165,485.373 907.011,484.057 908.956,483.256 C 910.901,482.455 912.821,482.264 914.731,482.572 C 916.516,482.976 918.182,483.865 919.665,485.288 C 920.644,486.309 921.328,487.458 921.716,488.735 C 922.057,489.951 922.116,491.185 922.018,492.342 L 930.433,483.927 L 933.338,486.82 L 909.779,510.281 L 907.065,507.636z"/>
    <path style="fill: #ffffff" d="M 906.447 490.001 C 904.218,492.102 903.052,494.177 902.948,496.225 C 902.687,498.196 903.188,499.879 904.577,501.177 C 905.746,502.446 907.345,502.993 909.375,502.816 C 911.185,502.609 913.283,501.494 915.45,499.441 C 917.77,497.073 918.951,494.889 919.212,492.918 C 919.254,490.917 918.69,489.282 917.521,488.013 C 916.133,486.714 914.533,486.168 912.675,486.312 C 910.693,486.551 908.643,487.728 906.447,490.001z"/>
    <path style="fill: none; fill-opacity:0; stroke-width: 0.02; stroke-linecap: round; stroke: #000000" d="M 839.334 442.606 L 841.695,445.817 C 840.955,446.778 840.605,447.734 840.756,448.702 C 840.877,449.888 841.608,451.099 842.935,452.445 C 844.214,453.729 845.503,454.513 846.755,454.734 C 848.022,454.846 849.223,454.615 850.529,454.008 C 851.211,453.486 852.528,452.378 854.447,450.515 C 851.636,450.7 849.299,449.833 847.483,447.977 C 845.068,445.595 844.087,442.902 844.588,439.959 C 844.871,436.987 846.328,434.394 848.758,432.041 C 850.414,430.477 852.198,429.209 854.143,428.407 C 856.088,427.606 858.008,427.415 859.855,427.771 C 861.703,428.127 863.368,429.016 864.947,430.563 C 866.858,432.543 867.696,435.05 867.476,437.975 L 869.533,435.907 L 872.185,438.599 L 857.476,453.312 C 854.722,456.012 852.675,457.58 851.04,458.144 C 849.42,458.598 847.638,458.585 845.853,458.181 C 844.034,457.606 842.288,456.483 840.553,454.86 C 838.499,452.694 837.322,450.643 836.988,448.537 C 836.669,446.321 837.43,444.36 839.334,442.606 L 839.334,442.606"/>
    <path style="fill: none; fill-opacity:0; stroke-width: 0.02; stroke-linecap: round; stroke: #000000" d="M 851.91 434.743 C 849.667,436.954 848.391,439.014 848.302,440.952 C 848.103,442.876 848.776,444.526 850.164,445.824 C 851.429,447.217 853.028,447.764 854.996,447.634 C 856.854,447.49 858.952,446.375 861.195,444.164 C 863.252,442.096 864.356,440.069 864.508,438.083 C 864.597,436.145 863.972,434.557 862.755,433.226 C 861.367,431.928 859.72,431.319 857.862,431.463 C 855.832,431.64 853.906,432.723 851.91,434.743 L 851.91,434.743"/>
    <path style="fill: none; fill-opacity:0; stroke-width: 0.02; stroke-linecap: round; stroke: #000000" d="M 866.946 450.387 C 870.087,447.292 873.29,445.822 876.605,446.038 C 879.311,446.229 881.666,447.377 883.829,449.558 C 886.087,451.863 887.239,454.524 887.286,457.539 C 887.161,460.587 885.831,463.476 883.139,466.129 C 880.896,468.339 878.816,469.736 876.948,470.38 C 875.032,470.962 873.079,470.982 871.151,470.392 C 869.161,469.85 867.462,468.789 866.041,467.319 C 863.578,464.875 862.426,462.215 862.537,459.276 C 862.552,456.214 864.054,453.292 866.946,450.387 L 866.946,450.387"/>
    <path style="fill: none; fill-opacity:0; stroke-width: 0.02; stroke-linecap: round; stroke: #000000" d="M 869.946 453.403 C 867.655,455.552 866.489,457.627 866.385,459.675 C 866.171,461.708 866.83,463.467 868.361,464.951 C 869.735,466.359 871.429,467.03 873.568,466.867 C 875.536,466.738 877.696,465.575 880.001,463.317 C 882.058,461.249 883.224,459.174 883.39,457.079 C 883.494,455.031 882.836,453.272 881.4,451.911 C 879.869,450.427 878.113,449.804 876.145,449.934 C 874.116,450.111 872.017,451.226 869.946,453.403 L 869.946,453.403"/>
    <path style="fill: none; fill-opacity:0; stroke-width: 0.02; stroke-linecap: round; stroke: #000000" d="M 885.259 468.638 C 888.399,465.544 891.603,464.073 894.918,464.289 C 897.623,464.48 899.979,465.628 902.142,467.809 C 904.4,470.115 905.552,472.775 905.598,475.79 C 905.473,478.839 904.143,481.727 901.452,484.38 C 899.209,486.59 897.129,487.987 895.26,488.631 C 893.344,489.213 891.391,489.233 889.463,488.643 C 887.473,488.101 885.775,487.04 884.354,485.57 C 881.891,483.127 880.739,480.466 880.849,477.528 C 880.865,474.465 882.366,471.543 885.259,468.638 L 885.259,468.638"/>
    <path style="fill: none; fill-opacity:0; stroke-width: 0.02; stroke-linecap: round; stroke: #000000" d="M 888.258 471.655 C 885.968,473.803 884.801,475.878 884.697,477.926 C 884.484,479.959 885.142,481.718 886.673,483.203 C 888.047,484.611 889.742,485.281 891.881,485.118 C 893.848,484.989 896.008,483.826 898.313,481.568 C 900.37,479.5 901.537,477.426 901.703,475.33 C 901.807,473.282 901.148,471.523 899.713,470.163 C 898.182,468.678 896.425,468.055 894.458,468.185 C 892.428,468.362 890.33,469.477 888.258,471.655 L 888.258,471.655"/>
    <path style="fill: none; fill-opacity:0; stroke-width: 0.02; stroke-linecap: round; stroke: #000000" d="M 907.065 507.636 L 909.246,505.473 C 906.439,506.049 904.025,505.339 901.957,503.282 C 900.522,501.922 899.629,500.243 899.266,498.356 C 898.856,496.407 898.993,494.531 899.754,492.57 C 900.453,490.656 901.7,488.815 903.495,487.047 C 905.165,485.373 907.011,484.057 908.956,483.256 C 910.901,482.455 912.821,482.264 914.731,482.572 C 916.516,482.976 918.182,483.865 919.665,485.288 C 920.644,486.309 921.328,487.458 921.716,488.735 C 922.057,489.951 922.116,491.185 922.018,492.342 L 930.433,483.927 L 933.338,486.82 L 909.779,510.281 L 907.065,507.636"/>
    <path style="fill: none; fill-opacity:0; stroke-width: 0.02; stroke-linecap: round; stroke: #000000" d="M 906.447 490.001 C 904.218,492.102 903.052,494.177 902.948,496.225 C 902.687,498.196 903.188,499.879 904.577,501.177 C 905.746,502.446 907.345,502.993 909.375,502.816 C 911.185,502.609 913.283,501.494 915.45,499.441 C 917.77,497.073 918.951,494.889 919.212,492.918 C 919.254,490.917 918.69,489.282 917.521,488.013 C 916.133,486.714 914.533,486.168 912.675,486.312 C 910.693,486.551 908.643,487.728 906.447,490.001 L 906.447,490.001"/>
  </g>
  <g>
    <path style="fill: #000000" d="M 200.859 286.316 L 204.766,286.863 C 204.922,288.113 205.391,288.973 206.172,289.52 C 207.109,290.223 208.516,290.613 210.313,290.691 C 212.188,290.613 213.672,290.223 214.688,289.52 C 215.703,288.738 216.406,287.723 216.797,286.395 C 216.953,285.535 217.031,283.816 217.109,281.16 C 215.313,283.27 213.125,284.285 210.469,284.285 C 207.109,284.285 204.531,283.113 202.734,280.691 C 200.859,278.348 199.922,275.457 200,272.098 C 199.922,269.832 200.313,267.723 201.25,265.77 C 202.031,263.816 203.281,262.332 204.844,261.238 C 206.406,260.223 208.281,259.676 210.469,259.598 C 213.281,259.676 215.625,260.848 217.5,263.113 L 217.5,260.145 L 221.25,260.145 L 221.25,281.004 C 221.25,284.754 220.859,287.41 220.078,288.973 C 219.297,290.535 218.047,291.707 216.484,292.645 C 214.766,293.504 212.734,293.973 210.391,294.051 C 207.422,293.973 205.078,293.348 203.359,292.098 C 201.484,290.77 200.703,288.816 200.859,286.316 L 200.859,286.316z"/>
    <path style="fill: #ffffff" d="M 204.219 271.785 C 204.141,274.988 204.766,277.332 206.094,278.738 C 207.266,280.301 208.828,281.004 210.781,280.926 C 212.656,281.004 214.219,280.301 215.547,278.738 C 216.719,277.332 217.344,275.066 217.422,271.941 C 217.344,269.051 216.719,266.785 215.469,265.301 C 214.141,263.816 212.578,263.113 210.781,263.035 C 208.906,263.113 207.344,263.816 206.094,265.223 C 204.766,266.707 204.141,268.895 204.219,271.785z"/>
    <path style="fill: #000000" d="M 227.5 255.691 L 227.5,251.004 L 231.563,251.004 L 231.563,255.691 L 227.5,255.691z"/>
    <path style="fill: #000000" d="M 227.5 284.285 L 227.5,260.145 L 231.563,260.145 L 231.563,284.285 L 227.5,284.285z"/>
    <path style="fill: #000000" d="M 237.734 284.285 L 237.734,260.145 L 241.406,260.145 L 241.406,263.816 C 242.266,262.176 243.125,261.082 243.984,260.457 C 244.688,259.988 245.625,259.676 246.641,259.598 C 247.969,259.676 249.297,260.145 250.781,260.926 L 249.375,264.754 C 248.281,264.207 247.344,263.895 246.406,263.816 C 245.469,263.895 244.609,264.207 243.984,264.676 C 243.203,265.301 242.734,266.004 242.5,266.863 C 241.953,268.348 241.719,269.91 241.797,271.629 L 241.797,284.285 L 237.734,284.285z"/>
    <path style="fill: #000000" d="M 253.125 284.285 L 253.125,251.004 L 257.188,251.004 L 257.188,284.285 L 253.125,284.285z"/>
    <path style="fill: #000000" d="M 261.953 277.098 L 266.016,276.473 C 266.172,278.113 266.797,279.363 267.891,280.223 C 268.906,281.082 270.391,281.473 272.266,281.473 C 274.141,281.473 275.469,281.16 276.406,280.379 C 277.266,279.676 277.734,278.738 277.813,277.645 C 277.734,276.785 277.344,276.082 276.563,275.457 C 276.016,275.145 274.609,274.676 272.422,274.051 C 269.297,273.426 267.266,272.801 266.172,272.176 C 265,271.707 264.063,270.926 263.516,269.832 C 262.891,268.895 262.656,267.801 262.656,266.551 C 262.656,265.613 262.891,264.598 263.359,263.66 C 263.828,262.723 264.453,261.941 265.391,261.316 C 265.938,260.848 266.797,260.457 267.969,260.145 C 269.063,259.832 270.313,259.676 271.563,259.598 C 273.438,259.676 275.078,259.988 276.484,260.457 C 277.891,261.082 278.906,261.785 279.688,262.645 C 280.313,263.66 280.781,264.91 281.094,266.395 L 277.109,266.941 C 276.797,265.691 276.25,264.754 275.469,264.051 C 274.531,263.348 273.359,262.957 271.797,262.957 C 269.922,262.957 268.594,263.27 267.813,263.895 C 267.031,264.52 266.641,265.301 266.641,266.082 C 266.641,266.707 266.797,267.176 267.109,267.566 C 267.422,268.035 267.891,268.426 268.672,268.66 C 268.984,268.816 270.234,269.129 272.266,269.676 C 275.156,270.535 277.188,271.16 278.359,271.629 C 279.453,272.098 280.313,272.801 281.016,273.738 C 281.641,274.676 281.953,275.848 282.031,277.176 C 281.953,278.582 281.563,279.91 280.781,281.082 C 279.922,282.332 278.75,283.27 277.344,283.895 C 275.781,284.52 274.141,284.754 272.266,284.832 C 269.141,284.754 266.719,284.129 265.078,282.879 C 263.438,281.629 262.422,279.754 261.953,277.098 L 261.953,277.098z"/>
    <path style="fill: none; fill-opacity:0; stroke-width: 0.02; stroke-linecap: round; stroke: #000000" d="M 200.859 286.316 L 204.766,286.863 C 204.922,288.113 205.391,288.973 206.172,289.52 C 207.109,290.223 208.516,290.613 210.313,290.691 C 212.188,290.613 213.672,290.223 214.688,289.52 C 215.703,288.738 216.406,287.723 216.797,286.395 C 216.953,285.535 217.031,283.816 217.109,281.16 C 215.313,283.27 213.125,284.285 210.469,284.285 C 207.109,284.285 204.531,283.113 202.734,280.691 C 200.859,278.348 199.922,275.457 200,272.098 C 199.922,269.832 200.313,267.723 201.25,265.77 C 202.031,263.816 203.281,262.332 204.844,261.238 C 206.406,260.223 208.281,259.676 210.469,259.598 C 213.281,259.676 215.625,260.848 217.5,263.113 L 217.5,260.145 L 221.25,260.145 L 221.25,281.004 C 221.25,284.754 220.859,287.41 220.078,288.973 C 219.297,290.535 218.047,291.707 216.484,292.645 C 214.766,293.504 212.734,293.973 210.391,294.051 C 207.422,293.973 205.078,293.348 203.359,292.098 C 201.484,290.77 200.703,288.816 200.859,286.316 L 200.859,286.316"/>
    <path style="fill: none; fill-opacity:0; stroke-width: 0.02; stroke-linecap: round; stroke: #000000" d="M 204.219 271.785 C 204.141,274.988 204.766,277.332 206.094,278.738 C 207.266,280.301 208.828,281.004 210.781,280.926 C 212.656,281.004 214.219,280.301 215.547,278.738 C 216.719,277.332 217.344,275.066 217.422,271.941 C 217.344,269.051 216.719,266.785 215.469,265.301 C 214.141,263.816 212.578,263.113 210.781,263.035 C 208.906,263.113 207.344,263.816 206.094,265.223 C 204.766,266.707 204.141,268.895 204.219,271.785 L 204.219,271.785"/>
    <path style="fill: none; fill-opacity:0; stroke-width: 0.02; stroke-linecap: round; stroke: #000000" d="M 227.5 255.691 L 227.5,251.004 L 231.563,251.004 L 231.563,255.691 L 227.5,255.691"/>
    <path style="fill: none; fill-opacity:0; stroke-width: 0.02; stroke-linecap: round; stroke: #000000" d="M 227.5 284.285 L 227.5,260.145 L 231.563,260.145 L 231.563,284.285 L 227.5,284.285"/>
    <path style="fill: none; fill-opacity:0; stroke-width: 0.02; stroke-linecap: round; stroke: #000000" d="M 237.734 284.285 L 237.734,260.145 L 241.406,260.145 L 241.406,263.816 C 242.266,262.176 243.125,261.082 243.984,260.457 C 244.688,259.988 245.625,259.676 246.641,259.598 C 247.969,259.676 249.297,260.145 250.781,260.926 L 249.375,264.754 C 248.281,264.207 247.344,263.895 246.406,263.816 C 245.469,263.895 244.609,264.207 243.984,264.676 C 243.203,265.301 242.734,266.004 242.5,266.863 C 241.953,268.348 241.719,269.91 241.797,271.629 L 241.797,284.285 L 237.734,284.285"/>
    <path style="fill: none; fill-opacity:0; stroke-width: 0.02; stroke-linecap: round; stroke: #000000" d="M 253.125 284.285 L 253.125,251.004 L 257.188,251.004 L 257.188,284.285 L 253.125,284.285"/>
    <path style="fill: none; fill-opacity:0; stroke-width: 0.02; stroke-linecap: round; stroke: #000000" d="M 261.953 277.098 L 266.016,276.473 C 266.172,278.113 266.797,279.363 267.891,280.223 C 268.906,281.082 270.391,281.473 272.266,281.473 C 274.141,281.473 275.469,281.16 276.406,280.379 C 277.266,279.676 277.734,278.738 277.813,277.645 C 277.734,276.785 277.344,276.082 276.563,275.457 C 276.016,275.145 274.609,274.676 272.422,274.051 C 269.297,273.426 267.266,272.801 266.172,272.176 C 265,271.707 264.063,270.926 263.516,269.832 C 262.891,268.895 262.656,267.801 262.656,266.551 C 262.656,265.613 262.891,264.598 263.359,263.66 C 263.828,262.723 264.453,261.941 265.391,261.316 C 265.938,260.848 266.797,260.457 267.969,260.145 C 269.063,259.832 270.313,259.676 271.563,259.598 C 273.438,259.676 275.078,259.988 276.484,260.457 C 277.891,261.082 278.906,261.785 279.688,262.645 C 280.313,263.66 280.781,264.91 281.094,266.395 L 277.109,266.941 C 276.797,265.691 276.25,264.754 275.469,264.051 C 274.531,263.348 273.359,262.957 271.797,262.957 C 269.922,262.957 268.594,263.27 267.813,263.895 C 267.031,264.52 266.641,265.301 266.641,266.082 C 266.641,266.707 266.797,267.176 267.109,267.566 C 267.422,268.035 267.891,268.426 268.672,268.66 C 268.984,268.816 270.234,269.129 272.266,269.676 C 275.156,270.535 277.188,271.16 278.359,271.629 C 279.453,272.098 280.313,272.801 281.016,273.738 C 281.641,274.676 281.953,275.848 282.031,277.176 C 281.953,278.582 281.563,279.91 280.781,281.082 C 279.922,282.332 278.75,283.27 277.344,283.895 C 275.781,284.52 274.141,284.754 272.266,284.832 C 269.141,284.754 266.719,284.129 265.078,282.879 C 263.438,281.629 262.422,279.754 261.953,277.098 L 261.953,277.098"/>
  </g>
  <g>
    <path style="fill: #000000" d="M 377.109 281.719 C 375.547,283.125 374.063,283.984 372.734,284.453 C 371.25,284.922 369.766,285.156 368.203,285.234 C 365.469,285.156 363.438,284.531 362.109,283.281 C 360.625,282.031 359.922,280.391 360,278.359 C 359.922,277.188 360.156,276.094 360.781,275.078 C 361.25,274.141 361.953,273.359 362.891,272.734 C 363.672,272.188 364.688,271.797 365.781,271.406 C 366.563,271.25 367.734,271.016 369.453,270.781 C 372.656,270.469 375.078,270 376.719,269.375 C 376.719,268.828 376.797,268.516 376.797,268.359 C 376.797,266.797 376.406,265.547 375.625,264.766 C 374.531,263.906 372.969,263.516 370.938,263.438 C 368.984,263.516 367.5,263.828 366.641,264.453 C 365.703,265.156 365.078,266.328 364.688,267.969 L 360.703,267.422 C 360.938,265.859 361.484,264.453 362.422,263.359 C 363.203,262.266 364.453,261.484 366.016,260.859 C 367.578,260.391 369.375,260.078 371.563,260 C 373.516,260.078 375.234,260.313 376.563,260.781 C 377.813,261.25 378.75,261.875 379.375,262.578 C 380,263.359 380.391,264.297 380.625,265.391 C 380.703,266.094 380.781,267.344 380.859,269.141 L 380.859,274.609 C 380.781,278.438 380.859,280.859 381.094,281.797 C 381.25,282.813 381.641,283.75 382.188,284.688 L 377.891,284.688 C 377.422,283.906 377.188,282.969 377.109,281.719 L 377.109,281.719z"/>
    <path style="fill: #ffffff" d="M 376.719 272.578 C 375.156,273.281 372.969,273.75 370.078,274.141 C 368.359,274.453 367.188,274.766 366.484,275 C 365.781,275.313 365.234,275.781 364.844,276.328 C 364.453,276.953 364.219,277.578 364.297,278.203 C 364.219,279.375 364.688,280.234 365.547,280.938 C 366.328,281.719 367.5,282.109 369.141,282.031 C 370.703,282.109 372.109,281.797 373.359,281.016 C 374.531,280.391 375.469,279.453 376.094,278.203 C 376.484,277.344 376.641,275.938 376.719,274.063z"/>
    <path style="fill: #000000" d="M 387.188 284.688 L 387.188,260.547 L 390.859,260.547 L 390.859,264.219 C 391.719,262.578 392.578,261.484 393.438,260.859 C 394.141,260.391 395.078,260.078 396.094,260 C 397.422,260.078 398.75,260.547 400.234,261.328 L 398.828,265.156 C 397.734,264.609 396.797,264.297 395.859,264.219 C 394.922,264.297 394.063,264.609 393.438,265.078 C 392.656,265.703 392.188,266.406 391.953,267.266 C 391.406,268.75 391.172,270.313 391.25,272.031 L 391.25,284.688 L 387.188,284.688z"/>
    <path style="fill: #000000" d="M 419.141 276.953 L 423.438,277.422 C 422.656,279.922 421.406,281.875 419.688,283.203 C 417.813,284.531 415.547,285.156 412.813,285.234 C 409.219,285.156 406.406,284.141 404.375,282.031 C 402.266,279.922 401.25,276.875 401.328,272.813 C 401.25,268.828 402.266,265.625 404.453,263.359 C 406.484,261.172 409.219,260.078 412.578,260 C 415.781,260.078 418.438,261.172 420.469,263.359 C 422.5,265.547 423.516,268.672 423.516,272.578 C 423.516,272.891 423.516,273.203 423.516,273.672 L 405.547,273.672 C 405.625,276.328 406.328,278.359 407.734,279.766 C 408.984,281.172 410.703,281.875 412.813,281.875 C 414.297,281.875 415.547,281.484 416.641,280.703 C 417.656,279.922 418.516,278.672 419.141,276.953 L 419.141,276.953z"/>
    <path style="fill: #ffffff" d="M 405.781 270.313 L 419.219,270.313 C 418.984,268.359 418.516,266.875 417.656,265.781 C 416.328,264.219 414.609,263.359 412.578,263.359 C 410.625,263.359 409.063,264.063 407.813,265.313 C 406.563,266.641 405.859,268.281 405.781,270.313z"/>
    <path style="fill: none; fill-opacity:0; stroke-width: 0.02; stroke-linecap: round; stroke: #000000" d="M 377.109 281.719 C 375.547,283.125 374.063,283.984 372.734,284.453 C 371.25,284.922 369.766,285.156 368.203,285.234 C 365.469,285.156 363.438,284.531 362.109,283.281 C 360.625,282.031 359.922,280.391 360,278.359 C 359.922,277.188 360.156,276.094 360.781,275.078 C 361.25,274.141 361.953,273.359 362.891,272.734 C 363.672,272.188 364.688,271.797 365.781,271.406 C 366.563,271.25 367.734,271.016 369.453,270.781 C 372.656,270.469 375.078,270 376.719,269.375 C 376.719,268.828 376.797,268.516 376.797,268.359 C 376.797,266.797 376.406,265.547 375.625,264.766 C 374.531,263.906 372.969,263.516 370.938,263.438 C 368.984,263.516 367.5,263.828 366.641,264.453 C 365.703,265.156 365.078,266.328 364.688,267.969 L 360.703,267.422 C 360.938,265.859 361.484,264.453 362.422,263.359 C 363.203,262.266 364.453,261.484 366.016,260.859 C 367.578,260.391 369.375,260.078 371.563,260 C 373.516,260.078 375.234,260.313 376.563,260.781 C 377.813,261.25 378.75,261.875 379.375,262.578 C 380,263.359 380.391,264.297 380.625,265.391 C 380.703,266.094 380.781,267.344 380.859,269.141 L 380.859,274.609 C 380.781,278.438 380.859,280.859 381.094,281.797 C 381.25,282.813 381.641,283.75 382.188,284.688 L 377.891,284.688 C 377.422,283.906 377.188,282.969 377.109,281.719 L 377.109,281.719"/>
    <path style="fill: none; fill-opacity:0; stroke-width: 0.02; stroke-linecap: round; stroke: #000000" d="M 376.719 272.578 C 375.156,273.281 372.969,273.75 370.078,274.141 C 368.359,274.453 367.188,274.766 366.484,275 C 365.781,275.313 365.234,275.781 364.844,276.328 C 364.453,276.953 364.219,277.578 364.297,278.203 C 364.219,279.375 364.688,280.234 365.547,280.938 C 366.328,281.719 367.5,282.109 369.141,282.031 C 370.703,282.109 372.109,281.797 373.359,281.016 C 374.531,280.391 375.469,279.453 376.094,278.203 C 376.484,277.344 376.641,275.938 376.719,274.063 L 376.719,272.578"/>
    <path style="fill: none; fill-opacity:0; stroke-width: 0.02; stroke-linecap: round; stroke: #000000" d="M 387.188 284.688 L 387.188,260.547 L 390.859,260.547 L 390.859,264.219 C 391.719,262.578 392.578,261.484 393.438,260.859 C 394.141,260.391 395.078,260.078 396.094,260 C 397.422,260.078 398.75,260.547 400.234,261.328 L 398.828,265.156 C 397.734,264.609 396.797,264.297 395.859,264.219 C 394.922,264.297 394.063,264.609 393.438,265.078 C 392.656,265.703 392.188,266.406 391.953,267.266 C 391.406,268.75 391.172,270.313 391.25,272.031 L 391.25,284.688 L 387.188,284.688"/>
    <path style="fill: none; fill-opacity:0; stroke-width: 0.02; stroke-linecap: round; stroke: #000000" d="M 419.141 276.953 L 423.438,277.422 C 422.656,279.922 421.406,281.875 419.688,283.203 C 417.813,284.531 415.547,285.156 412.813,285.234 C 409.219,285.156 406.406,284.141 404.375,282.031 C 402.266,279.922 401.25,276.875 401.328,272.813 C 401.25,268.828 402.266,265.625 404.453,263.359 C 406.484,261.172 409.219,260.078 412.578,260 C 415.781,260.078 418.438,261.172 420.469,263.359 C 422.5,265.547 423.516,268.672 423.516,272.578 C 423.516,272.891 423.516,273.203 423.516,273.672 L 405.547,273.672 C 405.625,276.328 406.328,278.359 407.734,279.766 C 408.984,281.172 410.703,281.875 412.813,281.875 C 414.297,281.875 415.547,281.484 416.641,280.703 C 417.656,279.922 418.516,278.672 419.141,276.953 L 419.141,276.953"/>
    <path style="fill: none; fill-opacity:0; stroke-width: 0.02; stroke-linecap: round; stroke: #000000" d="M 405.781 270.313 L 419.219,270.313 C 418.984,268.359 418.516,266.875 417.656,265.781 C 416.328,264.219 414.609,263.359 412.578,263.359 C 410.625,263.359 409.063,264.063 407.813,265.313 C 406.563,266.641 405.859,268.281 405.781,270.313 L 405.781,270.313"/>
  </g>
  <g>
    <path style="fill: #000000" d="M 580 291.496 L 580,258.137 L 583.75,258.137 L 583.75,261.34 C 584.609,260.168 585.547,259.23 586.719,258.527 C 587.734,257.98 589.063,257.668 590.703,257.59 C 592.734,257.668 594.609,258.215 596.172,259.23 C 597.734,260.324 598.906,261.809 599.688,263.684 C 600.469,265.637 600.859,267.746 600.938,270.012 C 600.859,272.59 600.391,274.855 599.609,276.73 C 598.672,278.762 597.422,280.246 595.703,281.262 C 593.984,282.277 592.188,282.746 590.469,282.824 C 588.984,282.746 587.734,282.512 586.719,281.965 C 585.625,281.418 584.766,280.715 584.141,279.777 L 584.141,291.496 L 580,291.496z"/>
    <path style="fill: #ffffff" d="M 583.75 270.324 C 583.75,273.449 584.375,275.793 585.625,277.277 C 586.875,278.762 588.359,279.465 590.156,279.465 C 591.953,279.465 593.516,278.762 594.844,277.199 C 596.094,275.715 596.719,273.293 596.797,270.012 C 596.719,266.965 596.094,264.699 594.844,263.137 C 593.516,261.652 592.031,260.871 590.313,260.793 C 588.594,260.871 587.031,261.652 585.703,263.293 C 584.375,264.934 583.75,267.277 583.75,270.324z"/>
    <path style="fill: #000000" d="M 605.781 282.277 L 605.781,248.996 L 609.844,248.996 L 609.844,282.277 L 605.781,282.277z"/>
    <path style="fill: #000000" d="M 632.656 274.543 L 636.953,275.012 C 636.172,277.512 634.922,279.465 633.203,280.793 C 631.328,282.121 629.063,282.746 626.328,282.824 C 622.734,282.746 619.922,281.73 617.891,279.621 C 615.781,277.512 614.766,274.465 614.844,270.402 C 614.766,266.418 615.781,263.215 617.969,260.949 C 620,258.762 622.734,257.668 626.094,257.59 C 629.297,257.668 631.953,258.762 633.984,260.949 C 636.016,263.137 637.031,266.262 637.031,270.168 C 637.031,270.48 637.031,270.793 637.031,271.262 L 619.063,271.262 C 619.141,273.918 619.844,275.949 621.25,277.355 C 622.5,278.762 624.219,279.465 626.328,279.465 C 627.813,279.465 629.063,279.074 630.156,278.293 C 631.172,277.512 632.031,276.262 632.656,274.543 L 632.656,274.543z"/>
    <path style="fill: #ffffff" d="M 619.297 267.902 L 632.734,267.902 C 632.5,265.949 632.031,264.465 631.172,263.371 C 629.844,261.809 628.125,260.949 626.094,260.949 C 624.141,260.949 622.578,261.652 621.328,262.902 C 620.078,264.23 619.375,265.871 619.297,267.902z"/>
    <path style="fill: #000000" d="M 657.813 279.309 C 656.25,280.715 654.766,281.574 653.438,282.043 C 651.953,282.512 650.469,282.746 648.906,282.824 C 646.172,282.746 644.141,282.121 642.813,280.871 C 641.328,279.621 640.625,277.98 640.703,275.949 C 640.625,274.777 640.859,273.684 641.484,272.668 C 641.953,271.73 642.656,270.949 643.594,270.324 C 644.375,269.777 645.391,269.387 646.484,268.996 C 647.266,268.84 648.438,268.605 650.156,268.371 C 653.359,268.059 655.781,267.59 657.422,266.965 C 657.422,266.418 657.5,266.105 657.5,265.949 C 657.5,264.387 657.109,263.137 656.328,262.355 C 655.234,261.496 653.672,261.105 651.641,261.027 C 649.688,261.105 648.203,261.418 647.344,262.043 C 646.406,262.746 645.781,263.918 645.391,265.559 L 641.406,265.012 C 641.641,263.449 642.188,262.043 643.125,260.949 C 643.906,259.855 645.156,259.074 646.719,258.449 C 648.281,257.98 650.078,257.668 652.266,257.59 C 654.219,257.668 655.938,257.902 657.266,258.371 C 658.516,258.84 659.453,259.465 660.078,260.168 C 660.703,260.949 661.094,261.887 661.328,262.98 C 661.406,263.684 661.484,264.934 661.563,266.73 L 661.563,272.199 C 661.484,276.027 661.563,278.449 661.797,279.387 C 661.953,280.402 662.344,281.34 662.891,282.277 L 658.594,282.277 C 658.125,281.496 657.891,280.559 657.813,279.309 L 657.813,279.309z"/>
    <path style="fill: #ffffff" d="M 657.422 270.168 C 655.859,270.871 653.672,271.34 650.781,271.73 C 649.063,272.043 647.891,272.355 647.188,272.59 C 646.484,272.902 645.938,273.371 645.547,273.918 C 645.156,274.543 644.922,275.168 645,275.793 C 644.922,276.965 645.391,277.824 646.25,278.527 C 647.031,279.309 648.203,279.699 649.844,279.621 C 651.406,279.699 652.813,279.387 654.063,278.605 C 655.234,277.98 656.172,277.043 656.797,275.793 C 657.188,274.934 657.344,273.527 657.422,271.652z"/>
    <path style="fill: #000000" d="M 666.25 275.09 L 670.313,274.465 C 670.469,276.105 671.094,277.355 672.188,278.215 C 673.203,279.074 674.688,279.465 676.563,279.465 C 678.438,279.465 679.766,279.152 680.703,278.371 C 681.563,277.668 682.031,276.73 682.109,275.637 C 682.031,274.777 681.641,274.074 680.859,273.449 C 680.313,273.137 678.906,272.668 676.719,272.043 C 673.594,271.418 671.563,270.793 670.469,270.168 C 669.297,269.699 668.359,268.918 667.813,267.824 C 667.188,266.887 666.953,265.793 666.953,264.543 C 666.953,263.605 667.188,262.59 667.656,261.652 C 668.125,260.715 668.75,259.934 669.688,259.309 C 670.234,258.84 671.094,258.449 672.266,258.137 C 673.359,257.824 674.609,257.668 675.859,257.59 C 677.734,257.668 679.375,257.98 680.781,258.449 C 682.188,259.074 683.203,259.777 683.984,260.637 C 684.609,261.652 685.078,262.902 685.391,264.387 L 681.406,264.934 C 681.094,263.684 680.547,262.746 679.766,262.043 C 678.828,261.34 677.656,260.949 676.094,260.949 C 674.219,260.949 672.891,261.262 672.109,261.887 C 671.328,262.512 670.938,263.293 670.938,264.074 C 670.938,264.699 671.094,265.168 671.406,265.559 C 671.719,266.027 672.188,266.418 672.969,266.652 C 673.281,266.809 674.531,267.121 676.563,267.668 C 679.453,268.527 681.484,269.152 682.656,269.621 C 683.75,270.09 684.609,270.793 685.313,271.73 C 685.938,272.668 686.25,273.84 686.328,275.168 C 686.25,276.574 685.859,277.902 685.078,279.074 C 684.219,280.324 683.047,281.262 681.641,281.887 C 680.078,282.512 678.438,282.746 676.563,282.824 C 673.438,282.746 671.016,282.121 669.375,280.871 C 667.734,279.621 666.719,277.746 666.25,275.09 L 666.25,275.09z"/>
    <path style="fill: #000000" d="M 707.656 274.543 L 711.953,275.012 C 711.172,277.512 709.922,279.465 708.203,280.793 C 706.328,282.121 704.063,282.746 701.328,282.824 C 697.734,282.746 694.922,281.73 692.891,279.621 C 690.781,277.512 689.766,274.465 689.844,270.402 C 689.766,266.418 690.781,263.215 692.969,260.949 C 695,258.762 697.734,257.668 701.094,257.59 C 704.297,257.668 706.953,258.762 708.984,260.949 C 711.016,263.137 712.031,266.262 712.031,270.168 C 712.031,270.48 712.031,270.793 712.031,271.262 L 694.063,271.262 C 694.141,273.918 694.844,275.949 696.25,277.355 C 697.5,278.762 699.219,279.465 701.328,279.465 C 702.813,279.465 704.063,279.074 705.156,278.293 C 706.172,277.512 707.031,276.262 707.656,274.543 L 707.656,274.543z"/>
    <path style="fill: #ffffff" d="M 694.297 267.902 L 707.734,267.902 C 707.5,265.949 707.031,264.465 706.172,263.371 C 704.844,261.809 703.125,260.949 701.094,260.949 C 699.141,260.949 697.578,261.652 696.328,262.902 C 695.078,264.23 694.375,265.871 694.297,267.902z"/>
    <path style="fill: #000000" d="M 732.656 282.277 L 732.656,279.23 C 731.094,281.574 728.906,282.746 725.938,282.824 C 723.984,282.746 722.188,282.277 720.625,281.262 C 718.984,280.246 717.734,278.762 716.875,276.809 C 715.938,274.934 715.469,272.746 715.547,270.246 C 715.469,267.902 715.859,265.715 716.719,263.762 C 717.5,261.809 718.75,260.324 720.391,259.23 C 721.953,258.215 723.75,257.668 725.781,257.59 C 727.188,257.668 728.438,257.98 729.609,258.527 C 730.703,259.23 731.641,260.012 732.422,260.949 L 732.422,248.996 L 736.484,248.996 L 736.484,282.277 L 732.656,282.277z"/>
    <path style="fill: #ffffff" d="M 719.766 270.246 C 719.688,273.371 720.391,275.715 721.719,277.199 C 722.969,278.762 724.453,279.465 726.328,279.465 C 728.047,279.465 729.609,278.762 730.859,277.277 C 732.109,275.871 732.734,273.605 732.734,270.559 C 732.734,267.277 732.031,264.934 730.781,263.371 C 729.453,261.887 727.969,261.105 726.172,261.027 C 724.297,261.105 722.734,261.809 721.563,263.293 C 720.313,264.777 719.688,267.121 719.766,270.246z"/>
    <path style="fill: none; fill-opacity:0; stroke-width: 0.02; stroke-linecap: round; stroke: #000000" d="M 580 291.496 L 580,258.137 L 583.75,258.137 L 583.75,261.34 C 584.609,260.168 585.547,259.23 586.719,258.527 C 587.734,257.98 589.063,257.668 590.703,257.59 C 592.734,257.668 594.609,258.215 596.172,259.23 C 597.734,260.324 598.906,261.809 599.688,263.684 C 600.469,265.637 600.859,267.746 600.938,270.012 C 600.859,272.59 600.391,274.855 599.609,276.73 C 598.672,278.762 597.422,280.246 595.703,281.262 C 593.984,282.277 592.188,282.746 590.469,282.824 C 588.984,282.746 587.734,282.512 586.719,281.965 C 585.625,281.418 584.766,280.715 584.141,279.777 L 584.141,291.496 L 580,291.496"/>
    <path style="fill: none; fill-opacity:0; stroke-width: 0.02; stroke-linecap: round; stroke: #000000" d="M 583.75 270.324 C 583.75,273.449 584.375,275.793 585.625,277.277 C 586.875,278.762 588.359,279.465 590.156,279.465 C 591.953,279.465 593.516,278.762 594.844,277.199 C 596.094,275.715 596.719,273.293 596.797,270.012 C 596.719,266.965 596.094,264.699 594.844,263.137 C 593.516,261.652 592.031,260.871 590.313,260.793 C 588.594,260.871 587.031,261.652 585.703,263.293 C 584.375,264.934 583.75,267.277 583.75,270.324 L 583.75,270.324"/>
    <path style="fill: none; fill-opacity:0; stroke-width: 0.02; stroke-linecap: round; stroke: #000000" d="M 605.781 282.277 L 605.781,248.996 L 609.844,248.996 L 609.844,282.277 L 605.781,282.277"/>
    <path style="fill: none; fill-opacity:0; stroke-width: 0.02; stroke-linecap: round; stroke: #000000" d="M 632.656 274.543 L 636.953,275.012 C 636.172,277.512 634.922,279.465 633.203,280.793 C 631.328,282.121 629.063,282.746 626.328,282.824 C 622.734,282.746 619.922,281.73 617.891,279.621 C 615.781,277.512 614.766,274.465 614.844,270.402 C 614.766,266.418 615.781,263.215 617.969,260.949 C 620,258.762 622.734,257.668 626.094,257.59 C 629.297,257.668 631.953,258.762 633.984,260.949 C 636.016,263.137 637.031,266.262 637.031,270.168 C 637.031,270.48 637.031,270.793 637.031,271.262 L 619.063,271.262 C 619.141,273.918 619.844,275.949 621.25,277.355 C 622.5,278.762 624.219,279.465 626.328,279.465 C 627.813,279.465 629.063,279.074 630.156,278.293 C 631.172,277.512 632.031,276.262 632.656,274.543 L 632.656,274.543"/>
    <path style="fill: none; fill-opacity:0; stroke-width: 0.02; stroke-linecap: round; stroke: #000000" d="M 619.297 267.902 L 632.734,267.902 C 632.5,265.949 632.031,264.465 631.172,263.371 C 629.844,261.809 628.125,260.949 626.094,260.949 C 624.141,260.949 622.578,261.652 621.328,262.902 C 620.078,264.23 619.375,265.871 619.297,267.902 L 619.297,267.902"/>
    <path style="fill: none; fill-opacity:0; stroke-width: 0.02; stroke-linecap: round; stroke: #000000" d="M 657.813 279.309 C 656.25,280.715 654.766,281.574 653.438,282.043 C 651.953,282.512 650.469,282.746 648.906,282.824 C 646.172,282.746 644.141,282.121 642.813,280.871 C 641.328,279.621 640.625,277.98 640.703,275.949 C 640.625,274.777 640.859,273.684 641.484,272.668 C 641.953,271.73 642.656,270.949 643.594,270.324 C 644.375,269.777 645.391,269.387 646.484,268.996 C 647.266,268.84 648.438,268.605 650.156,268.371 C 653.359,268.059 655.781,267.59 657.422,266.965 C 657.422,266.418 657.5,266.105 657.5,265.949 C 657.5,264.387 657.109,263.137 656.328,262.355 C 655.234,261.496 653.672,261.105 651.641,261.027 C 649.688,261.105 648.203,261.418 647.344,262.043 C 646.406,262.746 645.781,263.918 645.391,265.559 L 641.406,265.012 C 641.641,263.449 642.188,262.043 643.125,260.949 C 643.906,259.855 645.156,259.074 646.719,258.449 C 648.281,257.98 650.078,257.668 652.266,257.59 C 654.219,257.668 655.938,257.902 657.266,258.371 C 658.516,258.84 659.453,259.465 660.078,260.168 C 660.703,260.949 661.094,261.887 661.328,262.98 C 661.406,263.684 661.484,264.934 661.563,266.73 L 661.563,272.199 C 661.484,276.027 661.563,278.449 661.797,279.387 C 661.953,280.402 662.344,281.34 662.891,282.277 L 658.594,282.277 C 658.125,281.496 657.891,280.559 657.813,279.309 L 657.813,279.309"/>
    <path style="fill: none; fill-opacity:0; stroke-width: 0.02; stroke-linecap: round; stroke: #000000" d="M 657.422 270.168 C 655.859,270.871 653.672,271.34 650.781,271.73 C 649.063,272.043 647.891,272.355 647.188,272.59 C 646.484,272.902 645.938,273.371 645.547,273.918 C 645.156,274.543 644.922,275.168 645,275.793 C 644.922,276.965 645.391,277.824 646.25,278.527 C 647.031,279.309 648.203,279.699 649.844,279.621 C 651.406,279.699 652.813,279.387 654.063,278.605 C 655.234,277.98 656.172,277.043 656.797,275.793 C 657.188,274.934 657.344,273.527 657.422,271.652 L 657.422,270.168"/>
    <path style="fill: none; fill-opacity:0; stroke-width: 0.02; stroke-linecap: round; stroke: #000000" d="M 666.25 275.09 L 670.313,274.465 C 670.469,276.105 671.094,277.355 672.188,278.215 C 673.203,279.074 674.688,279.465 676.563,279.465 C 678.438,279.465 679.766,279.152 680.703,278.371 C 681.563,277.668 682.031,276.73 682.109,275.637 C 682.031,274.777 681.641,274.074 680.859,273.449 C 680.313,273.137 678.906,272.668 676.719,272.043 C 673.594,271.418 671.563,270.793 670.469,270.168 C 669.297,269.699 668.359,268.918 667.813,267.824 C 667.188,266.887 666.953,265.793 666.953,264.543 C 666.953,263.605 667.188,262.59 667.656,261.652 C 668.125,260.715 668.75,259.934 669.688,259.309 C 670.234,258.84 671.094,258.449 672.266,258.137 C 673.359,257.824 674.609,257.668 675.859,257.59 C 677.734,257.668 679.375,257.98 680.781,258.449 C 682.188,259.074 683.203,259.777 683.984,260.637 C 684.609,261.652 685.078,262.902 685.391,264.387 L 681.406,264.934 C 681.094,263.684 680.547,262.746 679.766,262.043 C 678.828,261.34 677.656,260.949 676.094,260.949 C 674.219,260.949 672.891,261.262 672.109,261.887 C 671.328,262.512 670.938,263.293 670.938,264.074 C 670.938,264.699 671.094,265.168 671.406,265.559 C 671.719,266.027 672.188,266.418 672.969,266.652 C 673.281,266.809 674.531,267.121 676.563,267.668 C 679.453,268.527 681.484,269.152 682.656,269.621 C 683.75,270.09 684.609,270.793 685.313,271.73 C 685.938,272.668 686.25,273.84 686.328,275.168 C 686.25,276.574 685.859,277.902 685.078,279.074 C 684.219,280.324 683.047,281.262 681.641,281.887 C 680.078,282.512 678.438,282.746 676.563,282.824 C 673.438,282.746 671.016,282.121 669.375,280.871 C 667.734,279.621 666.719,277.746 666.25,275.09 L 666.25,275.09"/>
    <path style="fill: none; fill-opacity:0; stroke-width: 0.02; stroke-linecap: round; stroke: #000000" d="M 707.656 274.543 L 711.953,275.012 C 711.172,277.512 709.922,279.465 708.203,280.793 C 706.328,282.121 704.063,282.746 701.328,282.824 C 697.734,282.746 694.922,281.73 692.891,279.621 C 690.781,277.512 689.766,274.465 689.844,270.402 C 689.766,266.418 690.781,263.215 692.969,260.949 C 695,258.762 697.734,257.668 701.094,257.59 C 704.297,257.668 706.953,258.762 708.984,260.949 C 711.016,263.137 712.031,266.262 712.031,270.168 C 712.031,270.48 712.031,270.793 712.031,271.262 L 694.063,271.262 C 694.141,273.918 694.844,275.949 696.25,277.355 C 697.5,278.762 699.219,279.465 701.328,279.465 C 702.813,279.465 704.063,279.074 705.156,278.293 C 706.172,277.512 707.031,276.262 707.656,274.543 L 707.656,274.543"/>
    <path style="fill: none; fill-opacity:0; stroke-width: 0.02; stroke-linecap: round; stroke: #000000" d="M 694.297 267.902 L 707.734,267.902 C 707.5,265.949 707.031,264.465 706.172,263.371 C 704.844,261.809 703.125,260.949 701.094,260.949 C 699.141,260.949 697.578,261.652 696.328,262.902 C 695.078,264.23 694.375,265.871 694.297,267.902 L 694.297,267.902"/>
    <path style="fill: none; fill-opacity:0; stroke-width: 0.02; stroke-linecap: round; stroke: #000000" d="M 732.656 282.277 L 732.656,279.23 C 731.094,281.574 728.906,282.746 725.938,282.824 C 723.984,282.746 722.188,282.277 720.625,281.262 C 718.984,280.246 717.734,278.762 716.875,276.809 C 715.938,274.934 715.469,272.746 715.547,270.246 C 715.469,267.902 715.859,265.715 716.719,263.762 C 717.5,261.809 718.75,260.324 720.391,259.23 C 721.953,258.215 723.75,257.668 725.781,257.59 C 727.188,257.668 728.438,257.98 729.609,258.527 C 730.703,259.23 731.641,260.012 732.422,260.949 L 732.422,248.996 L 736.484,248.996 L 736.484,282.277 L 732.656,282.277"/>
    <path style="fill: none; fill-opacity:0; stroke-width: 0.02; stroke-linecap: round; stroke: #000000" d="M 719.766 270.246 C 719.688,273.371 720.391,275.715 721.719,277.199 C 722.969,278.762 724.453,279.465 726.328,279.465 C 728.047,279.465 729.609,278.762 730.859,277.277 C 732.109,275.871 732.734,273.605 732.734,270.559 C 732.734,267.277 732.031,264.934 730.781,263.371 C 729.453,261.887 727.969,261.105 726.172,261.027 C 724.297,261.105 722.734,261.809 721.563,263.293 C 720.313,264.777 719.688,267.121 719.766,270.246 L 719.766,270.246"/>
  </g>
  <g>
    <path style="fill: #000000" d="M 720 409.099 L 720,384.958 L 723.672,384.958 L 723.672,388.395 C 725.391,385.817 727.969,384.489 731.406,384.411 C 732.734,384.489 734.063,384.724 735.313,385.192 C 736.484,385.739 737.422,386.442 738.047,387.302 C 738.672,388.161 739.063,389.177 739.375,390.27 C 739.453,391.13 739.531,392.458 739.609,394.255 L 739.609,409.099 L 735.547,409.099 L 735.547,394.411 C 735.469,392.849 735.313,391.599 735,390.739 C 734.688,389.958 734.063,389.333 733.281,388.786 C 732.422,388.317 731.484,388.005 730.469,388.005 C 728.672,388.005 727.188,388.552 726.016,389.645 C 724.688,390.739 724.063,392.849 724.141,395.895 L 724.141,409.099 L 720,409.099z"/>
    <path style="fill: #000000" d="M 762.344 401.364 L 766.641,401.833 C 765.859,404.333 764.609,406.286 762.891,407.614 C 761.016,408.942 758.75,409.567 756.016,409.645 C 752.422,409.567 749.609,408.552 747.578,406.442 C 745.469,404.333 744.453,401.286 744.531,397.224 C 744.453,393.239 745.469,390.036 747.656,387.77 C 749.688,385.583 752.422,384.489 755.781,384.411 C 758.984,384.489 761.641,385.583 763.672,387.77 C 765.703,389.958 766.719,393.083 766.719,396.989 C 766.719,397.302 766.719,397.614 766.719,398.083 L 748.75,398.083 C 748.828,400.739 749.531,402.77 750.938,404.177 C 752.188,405.583 753.906,406.286 756.016,406.286 C 757.5,406.286 758.75,405.895 759.844,405.114 C 760.859,404.333 761.719,403.083 762.344,401.364 L 762.344,401.364z"/>
    <path style="fill: #ffffff" d="M 748.984 394.724 L 762.422,394.724 C 762.188,392.77 761.719,391.286 760.859,390.192 C 759.531,388.63 757.813,387.77 755.781,387.77 C 753.828,387.77 752.266,388.474 751.016,389.724 C 749.766,391.052 749.063,392.692 748.984,394.724z"/>
    <path style="fill: #000000" d="M 776.172 409.099 L 768.828,384.958 L 773.047,384.958 L 776.875,398.942 L 778.281,404.099 C 778.281,403.864 778.672,402.224 779.531,399.099 L 783.359,384.958 L 787.578,384.958 L 791.172,398.942 L 792.422,403.552 L 793.75,398.942 L 797.891,384.958 L 801.875,384.958 L 794.375,409.099 L 790.078,409.099 L 786.25,394.645 L 785.313,390.583 L 780.469,409.099 L 776.172,409.099z"/>
    <path style="fill: #000000" d="M 803.672 401.911 L 807.734,401.286 C 807.891,402.927 808.516,404.177 809.609,405.036 C 810.625,405.895 812.109,406.286 813.984,406.286 C 815.859,406.286 817.188,405.974 818.125,405.192 C 818.984,404.489 819.453,403.552 819.531,402.458 C 819.453,401.599 819.063,400.895 818.281,400.27 C 817.734,399.958 816.328,399.489 814.141,398.864 C 811.016,398.239 808.984,397.614 807.891,396.989 C 806.719,396.52 805.781,395.739 805.234,394.645 C 804.609,393.708 804.375,392.614 804.375,391.364 C 804.375,390.427 804.609,389.411 805.078,388.474 C 805.547,387.536 806.172,386.755 807.109,386.13 C 807.656,385.661 808.516,385.27 809.688,384.958 C 810.781,384.645 812.031,384.489 813.281,384.411 C 815.156,384.489 816.797,384.802 818.203,385.27 C 819.609,385.895 820.625,386.599 821.406,387.458 C 822.031,388.474 822.5,389.724 822.813,391.208 L 818.828,391.755 C 818.516,390.505 817.969,389.567 817.188,388.864 C 816.25,388.161 815.078,387.77 813.516,387.77 C 811.641,387.77 810.313,388.083 809.531,388.708 C 808.75,389.333 808.359,390.114 808.359,390.895 C 808.359,391.52 808.516,391.989 808.828,392.38 C 809.141,392.849 809.609,393.239 810.391,393.474 C 810.703,393.63 811.953,393.942 813.984,394.489 C 816.875,395.349 818.906,395.974 820.078,396.442 C 821.172,396.911 822.031,397.614 822.734,398.552 C 823.359,399.489 823.672,400.661 823.75,401.989 C 823.672,403.395 823.281,404.724 822.5,405.895 C 821.641,407.145 820.469,408.083 819.063,408.708 C 817.5,409.333 815.859,409.567 813.984,409.645 C 810.859,409.567 808.438,408.942 806.797,407.692 C 805.156,406.442 804.141,404.567 803.672,401.911 L 803.672,401.911z"/>
    <path style="fill: none; fill-opacity:0; stroke-width: 0.02; stroke-linecap: round; stroke: #000000" d="M 720 409.099 L 720,384.958 L 723.672,384.958 L 723.672,388.395 C 725.391,385.817 727.969,384.489 731.406,384.411 C 732.734,384.489 734.063,384.724 735.313,385.192 C 736.484,385.739 737.422,386.442 738.047,387.302 C 738.672,388.161 739.063,389.177 739.375,390.27 C 739.453,391.13 739.531,392.458 739.609,394.255 L 739.609,409.099 L 735.547,409.099 L 735.547,394.411 C 735.469,392.849 735.313,391.599 735,390.739 C 734.688,389.958 734.063,389.333 733.281,388.786 C 732.422,388.317 731.484,388.005 730.469,388.005 C 728.672,388.005 727.188,388.552 726.016,389.645 C 724.688,390.739 724.063,392.849 724.141,395.895 L 724.141,409.099 L 720,409.099"/>
    <path style="fill: none; fill-opacity:0; stroke-width: 0.02; stroke-linecap: round; stroke: #000000" d="M 762.344 401.364 L 766.641,401.833 C 765.859,404.333 764.609,406.286 762.891,407.614 C 761.016,408.942 758.75,409.567 756.016,409.645 C 752.422,409.567 749.609,408.552 747.578,406.442 C 745.469,404.333 744.453,401.286 744.531,397.224 C 744.453,393.239 745.469,390.036 747.656,387.77 C 749.688,385.583 752.422,384.489 755.781,384.411 C 758.984,384.489 761.641,385.583 763.672,387.77 C 765.703,389.958 766.719,393.083 766.719,396.989 C 766.719,397.302 766.719,397.614 766.719,398.083 L 748.75,398.083 C 748.828,400.739 749.531,402.77 750.938,404.177 C 752.188,405.583 753.906,406.286 756.016,406.286 C 757.5,406.286 758.75,405.895 759.844,405.114 C 760.859,404.333 761.719,403.083 762.344,401.364 L 762.344,401.364"/>
    <path style="fill: none; fill-opacity:0; stroke-width: 0.02; stroke-linecap: round; stroke: #000000" d="M 748.984 394.724 L 762.422,394.724 C 762.188,392.77 761.719,391.286 760.859,390.192 C 759.531,388.63 757.813,387.77 755.781,387.77 C 753.828,387.77 752.266,388.474 751.016,389.724 C 749.766,391.052 749.063,392.692 748.984,394.724 L 748.984,394.724"/>
    <path style="fill: none; fill-opacity:0; stroke-width: 0.02; stroke-linecap: round; stroke: #000000" d="M 776.172 409.099 L 768.828,384.958 L 773.047,384.958 L 776.875,398.942 L 778.281,404.099 C 778.281,403.864 778.672,402.224 779.531,399.099 L 783.359,384.958 L 787.578,384.958 L 791.172,398.942 L 792.422,403.552 L 793.75,398.942 L 797.891,384.958 L 801.875,384.958 L 794.375,409.099 L 790.078,409.099 L 786.25,394.645 L 785.313,390.583 L 780.469,409.099 L 776.172,409.099"/>
    <path style="fill: none; fill-opacity:0; stroke-width: 0.02; stroke-linecap: round; stroke: #000000" d="M 803.672 401.911 L 807.734,401.286 C 807.891,402.927 808.516,404.177 809.609,405.036 C 810.625,405.895 812.109,406.286 813.984,406.286 C 815.859,406.286 817.188,405.974 818.125,405.192 C 818.984,404.489 819.453,403.552 819.531,402.458 C 819.453,401.599 819.063,400.895 818.281,400.27 C 817.734,399.958 816.328,399.489 814.141,398.864 C 811.016,398.239 808.984,397.614 807.891,396.989 C 806.719,396.52 805.781,395.739 805.234,394.645 C 804.609,393.708 804.375,392.614 804.375,391.364 C 804.375,390.427 804.609,389.411 805.078,388.474 C 805.547,387.536 806.172,386.755 807.109,386.13 C 807.656,385.661 808.516,385.27 809.688,384.958 C 810.781,384.645 812.031,384.489 813.281,384.411 C 815.156,384.489 816.797,384.802 818.203,385.27 C 819.609,385.895 820.625,386.599 821.406,387.458 C 822.031,388.474 822.5,389.724 822.813,391.208 L 818.828,391.755 C 818.516,390.505 817.969,389.567 817.188,388.864 C 816.25,388.161 815.078,387.77 813.516,387.77 C 811.641,387.77 810.313,388.083 809.531,388.708 C 808.75,389.333 808.359,390.114 808.359,390.895 C 808.359,391.52 808.516,391.989 808.828,392.38 C 809.141,392.849 809.609,393.239 810.391,393.474 C 810.703,393.63 811.953,393.942 813.984,394.489 C 816.875,395.349 818.906,395.974 820.078,396.442 C 821.172,396.911 822.031,397.614 822.734,398.552 C 823.359,399.489 823.672,400.661 823.75,401.989 C 823.672,403.395 823.281,404.724 822.5,405.895 C 821.641,407.145 820.469,408.083 819.063,408.708 C 817.5,409.333 815.859,409.567 813.984,409.645 C 810.859,409.567 808.438,408.942 806.797,407.692 C 805.156,406.442 804.141,404.567 803.672,401.911 L 803.672,401.911"/>
  </g>
</svg>
