<?xml version="1.0" encoding="UTF-8" standalone="no"?>
<!DOCTYPE svg PUBLIC "-//W3C//DTD SVG 1.0//EN" "http://www.w3.org/TR/2001/PR-SVG-20010719/DTD/svg10.dtd">
<svg width="13cm" height="21cm" viewBox="437 248 244 402" xmlns="http://www.w3.org/2000/svg" xmlns:xlink="http://www.w3.org/1999/xlink">
  <g>
    <rect style="fill: #ffffff" x="438.108" y="249.616" width="120" height="39.7889"/>
    <rect style="fill: none; fill-opacity:0; stroke-width: 2; stroke: #000000" x="438.108" y="249.616" width="120" height="39.7889"/>
    <text font-size="12.8" style="fill: #000000;text-anchor:middle;font-family:sans-serif;font-style:normal;font-weight:normal" x="498.108" y="273.41">
      <tspan x="498.108" y="273.41">Book</tspan>
    </text>
  </g>
  <g>
    <rect style="fill: #ffffff" x="500" y="310" width="120" height="40"/>
    <rect style="fill: none; fill-opacity:0; stroke-width: 2; stroke: #000000" x="500" y="310" width="120" height="40"/>
    <text font-size="12.8" style="fill: #000000;text-anchor:middle;font-family:sans-serif;font-style:normal;font-weight:normal" x="560" y="333.9">
      <tspan x="560" y="333.9">Chapter 1</tspan>
    </text>
  </g>
  <g>
    <rect style="fill: #ffffff" x="560" y="370" width="120" height="39"/>
    <rect style="fill: none; fill-opacity:0; stroke-width: 2; stroke: #000000" x="560" y="370" width="120" height="39"/>
    <text font-size="12.8" style="fill: #000000;text-anchor:middle;font-family:sans-serif;font-style:normal;font-weight:normal" x="620" y="393.4">
      <tspan x="620" y="393.4">Section 1</tspan>
    </text>
  </g>
  <text font-size="12.8" style="fill: #000000;text-anchor:start;font-family:sans-serif;font-style:normal;font-weight:normal" x="498.108" y="269.51">
    <tspan x="498.108" y="269.51"></tspan>
  </text>
  <g>
    <rect style="fill: #ffffff" x="560" y="430" width="120" height="39"/>
    <rect style="fill: none; fill-opacity:0; stroke-width: 2; stroke: #000000" x="560" y="430" width="120" height="39"/>
    <text font-size="12.8" style="fill: #000000;text-anchor:middle;font-family:sans-serif;font-style:normal;font-weight:normal" x="620" y="453.4">
      <tspan x="620" y="453.4">Section 2</tspan>
    </text>
  </g>
  <g>
    <rect style="fill: #ffffff" x="500" y="490" width="120" height="40"/>
    <rect style="fill: none; fill-opacity:0; stroke-width: 2; stroke: #000000" x="500" y="490" width="120" height="40"/>
    <text font-size="12.8" style="fill: #000000;text-anchor:middle;font-family:sans-serif;font-style:normal;font-weight:normal" x="560" y="513.9">
      <tspan x="560" y="513.9">Chapter 2</tspan>
    </text>
  </g>
  <g>
    <rect style="fill: #ffffff" x="560" y="550" width="120" height="39"/>
    <rect style="fill: none; fill-opacity:0; stroke-width: 2; stroke: #000000" x="560" y="550" width="120" height="39"/>
    <text font-size="12.8" style="fill: #000000;text-anchor:middle;font-family:sans-serif;font-style:normal;font-weight:normal" x="620" y="573.4">
      <tspan x="620" y="573.4">Section 1</tspan>
    </text>
  </g>
  <g>
    <rect style="fill: #ffffff" x="560" y="610" width="120" height="39"/>
    <rect style="fill: none; fill-opacity:0; stroke-width: 2; stroke: #000000" x="560" y="610" width="120" height="39"/>
    <text font-size="12.8" style="fill: #000000;text-anchor:middle;font-family:sans-serif;font-style:normal;font-weight:normal" x="620" y="633.4">
      <tspan x="620" y="633.4">Section 2</tspan>
    </text>
  </g>
  <polyline style="fill: none; fill-opacity:0; stroke-width: 2; stroke: #000000" points="468.108,289.405 468.108,510 500,510 "/>
  <line style="fill: none; fill-opacity:0; stroke-width: 2; stroke: #000000" x1="500" y1="330" x2="468.27" y2="329.958"/>
  <polyline style="fill: none; fill-opacity:0; stroke-width: 2; stroke: #000000" points="530,350 530,449.5 560,449.5 "/>
  <line style="fill: none; fill-opacity:0; stroke-width: 2; stroke: #000000" x1="560" y1="389.5" x2="530" y2="390"/>
  <polyline style="fill: none; fill-opacity:0; stroke-width: 2; stroke: #000000" points="530,530 530,629.5 560,629.5 "/>
  <line style="fill: none; fill-opacity:0; stroke-width: 2; stroke: #000000" x1="560" y1="569.5" x2="530" y2="570"/>
</svg>
