<?xml version="1.0" encoding="UTF-8" standalone="no"?>
<!-- Created with Inkscape (http://www.inkscape.org/) -->

<svg
   xmlns:dc="http://purl.org/dc/elements/1.1/"
   xmlns:cc="http://creativecommons.org/ns#"
   xmlns:rdf="http://www.w3.org/1999/02/22-rdf-syntax-ns#"
   xmlns:svg="http://www.w3.org/2000/svg"
   xmlns="http://www.w3.org/2000/svg"
   xmlns:sodipodi="http://sodipodi.sourceforge.net/DTD/sodipodi-0.dtd"
   xmlns:inkscape="http://www.inkscape.org/namespaces/inkscape"
   width="188.27061"
   height="88.629753"
   id="svg3319"
   version="1.1"
   inkscape:version="0.48.1 r9760"
   sodipodi:docname="XML-Press-Logo-noURL-color.svg">
  <defs
     id="defs3321" />
  <sodipodi:namedview
     id="base"
     pagecolor="#ffffff"
     bordercolor="#666666"
     borderopacity="1.0"
     inkscape:pageopacity="1"
     inkscape:pageshadow="2"
     inkscape:zoom="6.1029173"
     inkscape:cx="65.132783"
     inkscape:cy="44.314877"
     inkscape:document-units="px"
     inkscape:current-layer="g196"
     showgrid="false"
     fit-margin-top="0"
     fit-margin-left="0"
     fit-margin-right="0"
     fit-margin-bottom="0"
     inkscape:window-width="1280"
     inkscape:window-height="1002"
     inkscape:window-x="0"
     inkscape:window-y="0"
     inkscape:window-maximized="0" />
  <metadata
     id="metadata3324">
    <rdf:RDF>
      <cc:Work
         rdf:about="">
        <dc:format>image/svg+xml</dc:format>
        <dc:type
           rdf:resource="http://purl.org/dc/dcmitype/StillImage" />
        <dc:title />
      </cc:Work>
    </rdf:RDF>
  </metadata>
  <g
     inkscape:label="Layer 1"
     inkscape:groupmode="layer"
     id="layer1"
     transform="translate(-257.29326,-628.04731)">
    <g
       id="g164"
       transform="matrix(1.25,0,0,-1.25,445.47364,701.96931)">
      <path
         inkscape:connector-curvature="0"
         d="m 0,0 c 0,-6.313 -5.115,-11.426 -11.432,-11.426 l -65.99,0 c -6.311,0 -11.429,5.113 -11.429,11.426 0,6.312 5.118,11.427 11.429,11.427 l 65.99,0 C -5.115,11.427 0,6.312 0,0"
         style="fill:#373535;fill-opacity:1;fill-rule:nonzero;stroke:none"
         id="path166" />
    </g>
    <g
       id="g168"
       transform="matrix(1.25,0,0,-1.25,441.26701,668.57456)">
      <path
         inkscape:connector-curvature="0"
         d="m 0,0 c -0.498,-2.361 -1.008,-4.392 -1.527,-6.096 -2.508,-0.568 -5.602,-0.849 -9.284,-0.849 -1.222,0 -3.111,0.066 -5.66,0.199 -0.138,3.4 -0.209,6.394 -0.209,8.982 l 0.176,13.809 c 0.059,5.594 0.141,8.65 0.246,9.17 0.106,0.522 0.287,0.865 0.543,1.037 0.399,0.276 1.889,0.5 4.467,0.668 l 0.185,0 0,2.157 -0.017,0 0,0.018 -19.375,0 0,-0.018 -1.133,0 0,0.018 -13.896,0 c -2.672,-6.105 -7.303,-15.562 -13.901,-28.38 -6.297,12.578 -9.844,19.709 -10.646,21.389 -1.108,2.312 -2.18,4.644 -3.218,6.992 l -22.022,0 c -0.914,-1.455 -2.057,-3.174 -3.437,-5.169 l -12.108,-17.625 -5.288,9.645 c -3.41,6.283 -5.733,10.231 -6.977,11.852 -1.24,1.618 -2.87,3.156 -4.886,4.613 l -18.565,-3.722 0.446,-4.069 c 1.42,0.233 2.499,0.349 3.228,0.349 1.19,0 2.199,-0.282 3.026,-0.844 1.556,-1.028 3.9,-3.99 7.029,-8.892 3.129,-4.898 7.304,-11.935 12.536,-21.102 l -16.74,-22.248 c -2.449,-3.142 -4.013,-4.909 -4.689,-5.306 -0.678,-0.395 -2.506,-0.697 -5.483,-0.894 l 0,-4.166 c 2.915,0.23 5.015,0.345 6.307,0.345 1.257,0 3.176,-0.115 5.757,-0.345 4.304,7.035 7.032,11.433 8.193,13.187 l 9.687,13.971 9.888,-18.041 c 2.221,-4.033 3.958,-7.071 5.218,-9.117 2.909,0.23 5.885,0.345 8.929,0.345 3.405,0 6.996,-0.115 10.767,-0.345 l 0,4.166 c -2.514,0.134 -4.061,0.398 -4.64,0.793 -0.58,0.397 -2.39,2.945 -5.431,7.642 -2.284,3.57 -6.276,10.508 -11.975,20.805 L -107.762,0.869 -92.356,21 c 2.279,2.944 3.869,4.664 4.764,5.16 0.337,0.203 0.961,0.381 1.857,0.531 1.143,-0.105 1.828,-0.211 2.036,-0.31 0.311,-0.152 0.528,-0.35 0.645,-0.596 0.234,-0.49 0.366,-1.849 0.395,-4.078 0.033,-3.682 0.044,-6.968 0.044,-9.855 0,-5.438 -0.07,-10.491 -0.205,-15.153 -0.058,-2.286 -0.269,-3.629 -0.624,-4.026 -0.36,-0.399 -1.251,-0.633 -2.67,-0.71 l -1.748,-0.111 0,-2.381 c 2.32,0.127 4.963,0.197 7.928,0.197 1.986,0 3.978,-0.07 5.968,-0.197 l 0,2.381 c -2.523,0.111 -3.976,0.359 -4.371,0.738 -0.387,0.373 -0.613,1.379 -0.674,3.002 -0.097,4.024 -0.144,11.355 -0.144,22.008 l 0,3.854 10.151,-20.162 c 2.465,-4.97 4.43,-9.081 5.899,-12.335 l 1.927,0 c 1.073,2.461 2.573,5.637 4.489,9.529 4.675,9.468 8.519,17.126 11.531,22.968 l 0,-17.108 c 0,-4.946 -0.051,-8.087 -0.147,-9.417 -0.097,-1.333 -0.316,-2.156 -0.66,-2.47 -0.342,-0.313 -1.195,-0.496 -2.566,-0.554 l -1.725,-0.053 0,-2.381 c 4.297,0.127 7.699,0.197 10.197,0.197 2.479,0 5.307,-0.07 8.471,-0.197 l 0,2.381 c -2.478,0.207 -3.85,0.387 -4.101,0.54 -0.256,0.146 -0.452,0.364 -0.59,0.65 -0.194,0.489 -0.325,2.606 -0.395,6.343 -0.064,3.738 -0.099,7.286 -0.099,10.65 0,6.667 0.07,11.19 0.205,13.567 0.095,1.456 0.306,2.326 0.64,2.61 0.334,0.281 1.782,0.498 4.34,0.65 l 0,0.058 1.274,0 c 2.453,-0.205 3.826,-0.365 4.125,-0.484 0.304,-0.125 0.501,-0.311 0.603,-0.553 0.211,-0.416 0.352,-2.004 0.408,-4.764 0.096,-3.872 0.147,-7.992 0.147,-12.361 0,-5.556 -0.123,-10.895 -0.379,-16.018 -0.957,-0.664 -1.975,-1.234 -3.049,-1.728 l 0,-1.473 c 4.078,0.151 7.215,0.217 9.398,0.198 l 4.743,-0.064 10.603,-0.134 c 1.555,0 3.266,0.064 5.121,0.198 C 1.748,-6.174 2.135,-2.76 2.578,0 L 0,0 z"
         style="fill:#8e3233;fill-opacity:1;fill-rule:nonzero;stroke:none"
         id="path170" />
    </g>
    <g
       id="g172"
       transform="matrix(1.25,0,0,-1.25,445.56388,701.95831)">
      <path
         inkscape:connector-curvature="0"
         d="m 0,0 c 0,-6.313 -5.115,-11.426 -11.43,-11.426 l -65.992,0 c -6.311,0 -11.431,5.113 -11.431,11.426 0,6.313 5.12,11.428 11.431,11.428 l 65.992,0 C -5.115,11.428 0,6.313 0,0"
         style="fill:#373535;fill-opacity:1;fill-rule:nonzero;stroke:none"
         id="path174" />
    </g>
    <g
       id="g176"
       transform="matrix(1.25,0,0,-1.25,350.88376,701.97056)">
      <path
         inkscape:connector-curvature="0"
         d="M 0,0 1.275,0 C 2.154,0 2.852,0.07 3.367,0.207 3.881,0.344 4.297,0.578 4.627,0.916 4.932,1.229 5.15,1.565 5.287,1.924 5.422,2.283 5.494,2.717 5.494,3.219 5.494,3.763 5.4,4.225 5.221,4.607 5.037,4.993 4.773,5.304 4.41,5.547 4.088,5.76 3.709,5.912 3.279,6.004 2.832,6.092 2.275,6.142 1.6,6.142 L 0,6.142 0,0 z m -2.62,-8.439 0,16.896 4.352,0 C 2.717,8.457 3.561,8.374 4.27,8.207 4.979,8.04 5.607,7.766 6.156,7.393 6.795,6.951 7.303,6.393 7.66,5.714 8.029,5.034 8.209,4.217 8.209,3.276 8.209,2.535 8.076,1.828 7.813,1.167 7.545,0.502 7.18,-0.068 6.705,-0.538 6.117,-1.123 5.422,-1.563 4.627,-1.862 3.824,-2.16 2.832,-2.307 1.645,-2.307 l -1.641,0 0,-6.132 -2.624,0 z"
         style="fill:#ffffff;fill-opacity:1;fill-rule:nonzero;stroke:none"
         id="path178" />
    </g>
    <g
       id="g180"
       transform="matrix(1.25,0,0,-1.25,367.76363,701.51644)">
      <path
         inkscape:connector-curvature="0"
         d="M 0,0 1.705,0 C 2.32,0 2.871,0.057 3.352,0.159 3.813,0.262 4.205,0.47 4.529,0.789 4.822,1.076 5.037,1.414 5.178,1.813 5.318,2.21 5.393,2.688 5.393,3.241 5.393,3.695 5.313,4.088 5.156,4.428 5.004,4.766 4.775,5.033 4.453,5.251 4.166,5.439 3.832,5.578 3.443,5.655 3.051,5.737 2.553,5.778 1.949,5.778 L 0,5.781 0,0 z m 7.395,-8.806 -5.219,6.545 -2.176,0 0,-6.545 -2.623,0 0,16.899 4.463,0 C 2.791,8.093 3.592,8.041 4.248,7.938 4.916,7.826 5.551,7.574 6.146,7.186 6.748,6.801 7.23,6.297 7.582,5.685 7.941,5.061 8.117,4.299 8.117,3.408 8.117,2.164 7.799,1.102 7.152,0.248 6.574,-0.523 5.797,-1.113 4.84,-1.517 l 5.959,-7.289 -3.404,0 z"
         style="fill:#ffffff;fill-opacity:1;fill-rule:nonzero;stroke:none"
         id="path182" />
    </g>
    <g
       id="g184"
       transform="matrix(1.25,0,0,-1.25,383.18114,712.52232)">
      <path
         inkscape:connector-curvature="0"
         d="m 0,0 0,16.897 10.727,0 0,-2.381 -8.106,0 0,-4.076 7.557,0 0,-2.379 -7.553,0 0,-5.68 8.102,0 L 10.727,0 0,0 z"
         style="fill:#ffffff;fill-opacity:1;fill-rule:nonzero;stroke:none"
         id="path186" />
    </g>
    <g
       id="g188"
       transform="matrix(1.25,0,0,-1.25,407.90038,712.89581)">
      <path
         inkscape:connector-curvature="0"
         d="m 0,0 c -1.211,0 -2.244,0.123 -3.109,0.38 -0.844,0.247 -1.643,0.557 -2.393,0.923 l -0.123,0.064 0,3.092 0.221,0 0.236,0 0.064,-0.06 c 0.708,-0.661 1.499,-1.169 2.385,-1.532 0.895,-0.36 1.75,-0.542 2.565,-0.542 1.177,0 2.039,0.247 2.603,0.709 0.572,0.47 0.844,1.055 0.85,1.827 0,0.619 -0.151,1.103 -0.44,1.469 C 2.572,6.693 2.104,6.98 1.422,7.174 0.916,7.317 0.457,7.44 0.039,7.534 -0.385,7.631 -0.91,7.76 -1.549,7.924 -2.127,8.074 -2.652,8.268 -3.117,8.502 -3.592,8.74 -4.01,9.057 -4.371,9.441 c -0.359,0.383 -0.637,0.84 -0.834,1.354 -0.199,0.518 -0.297,1.109 -0.297,1.773 -0.006,1.393 0.555,2.584 1.633,3.52 1.08,0.941 2.469,1.412 4.127,1.407 0.931,0 1.818,-0.093 2.66,-0.282 0.836,-0.19 1.611,-0.453 2.33,-0.802 l 0.119,-0.056 0,-2.976 -0.215,0 -0.254,0 -0.058,0.057 c -0.504,0.457 -1.149,0.866 -1.953,1.216 -0.793,0.344 -1.619,0.52 -2.489,0.52 -0.984,-0.006 -1.753,-0.232 -2.337,-0.674 -0.575,-0.441 -0.844,-0.987 -0.854,-1.699 0.004,-0.66 0.176,-1.158 0.502,-1.522 0.334,-0.377 0.826,-0.658 1.494,-0.842 C -0.334,10.312 0.232,10.171 0.9,10.01 1.576,9.85 2.137,9.702 2.584,9.567 3.748,9.216 4.623,8.67 5.184,7.924 5.74,7.182 6.012,6.263 6.012,5.202 6.012,4.533 5.873,3.869 5.602,3.219 5.33,2.565 4.943,2.006 4.447,1.549 3.896,1.051 3.273,0.67 2.584,0.4 1.883,0.129 1.021,0 0,0"
         style="fill:#ffffff;fill-opacity:1;fill-rule:nonzero;stroke:none"
         id="path190" />
    </g>
    <g
       id="g192"
       transform="matrix(1.25,0,0,-1.25,426.18163,712.89581)">
      <path
         inkscape:connector-curvature="0"
         d="m 0,0 c -1.211,0 -2.244,0.123 -3.109,0.38 -0.844,0.247 -1.643,0.557 -2.393,0.923 l -0.123,0.064 0,3.092 0.221,0 0.236,0 0.064,-0.06 c 0.708,-0.661 1.499,-1.169 2.385,-1.532 0.895,-0.36 1.75,-0.542 2.565,-0.542 1.177,0 2.039,0.247 2.603,0.709 0.572,0.47 0.844,1.055 0.85,1.827 0,0.619 -0.151,1.103 -0.44,1.469 C 2.572,6.693 2.104,6.98 1.422,7.174 0.916,7.317 0.457,7.44 0.039,7.534 -0.385,7.631 -0.91,7.76 -1.549,7.924 -2.127,8.074 -2.652,8.268 -3.117,8.502 -3.592,8.74 -4.01,9.057 -4.371,9.441 c -0.359,0.383 -0.637,0.84 -0.834,1.354 -0.199,0.518 -0.297,1.109 -0.297,1.773 -0.006,1.393 0.555,2.584 1.633,3.52 1.08,0.941 2.469,1.412 4.127,1.407 0.931,0 1.818,-0.093 2.66,-0.282 0.836,-0.19 1.611,-0.453 2.33,-0.802 l 0.119,-0.056 0,-2.976 -0.215,0 -0.254,0 -0.058,0.057 c -0.504,0.457 -1.149,0.866 -1.953,1.216 -0.793,0.344 -1.619,0.52 -2.489,0.52 -0.984,-0.006 -1.753,-0.232 -2.337,-0.674 -0.575,-0.441 -0.844,-0.987 -0.854,-1.699 0.004,-0.66 0.176,-1.158 0.502,-1.522 0.334,-0.377 0.826,-0.658 1.494,-0.842 C -0.334,10.312 0.232,10.171 0.9,10.01 1.576,9.85 2.137,9.702 2.584,9.567 3.748,9.216 4.623,8.67 5.184,7.924 5.74,7.182 6.012,6.263 6.012,5.202 6.012,4.533 5.873,3.869 5.602,3.219 5.33,2.565 4.943,2.006 4.447,1.549 3.896,1.051 3.273,0.67 2.584,0.4 1.883,0.129 1.021,0 0,0"
         style="fill:#ffffff;fill-opacity:1;fill-rule:nonzero;stroke:none"
         id="path194" />
    </g>
    <g
       id="g196"
       transform="matrix(1.25,0,0,-1.25,441.35738,668.56231)">
      <path
         inkscape:connector-curvature="0"
         d="m 0,0 c -0.5,-2.362 -1.004,-4.393 -1.525,-6.096 -2.51,-0.568 -5.604,-0.849 -9.286,-0.849 -1.222,0 -3.111,0.065 -5.662,0.199 -0.134,3.399 -0.205,6.394 -0.205,8.982 l 0.176,13.807 c 0.057,5.596 0.141,8.652 0.246,9.17 0.106,0.523 0.285,0.866 0.541,1.037 0.402,0.277 1.889,0.502 4.469,0.668 l 0.182,0 0,2.158 -0.012,0 0,0.018 -19.379,0 0,-0.018 -1.133,0 0,0.018 -13.896,0 c -2.672,-6.104 -7.303,-15.561 -13.903,-28.38 -6.295,12.579 -9.843,19.71 -10.644,21.39 -1.11,2.312 -2.182,4.643 -3.218,6.992 l -22.024,0 c -0.914,-1.457 -2.057,-3.175 -3.434,-5.17 l -12.111,-17.625 -5.286,9.646 c -3.41,6.282 -5.735,10.231 -6.978,11.85 -1.241,1.619 -2.871,3.158 -4.886,4.615 l -18.564,-3.723 0.447,-4.069 c 1.418,0.234 2.496,0.349 3.227,0.349 1.191,0 2.198,-0.283 3.025,-0.844 1.558,-1.027 3.901,-3.99 7.03,-8.892 3.129,-4.897 7.303,-11.935 12.534,-21.102 l -16.74,-22.248 c -2.449,-3.143 -4.013,-4.908 -4.688,-5.306 -0.678,-0.395 -2.507,-0.696 -5.484,-0.895 l 0,-4.166 c 2.917,0.232 5.015,0.345 6.309,0.345 1.255,0 3.177,-0.113 5.755,-0.345 4.307,7.037 7.033,11.435 8.193,13.189 l 9.69,13.969 9.885,-18.041 c 2.221,-4.031 3.961,-7.069 5.22,-9.117 2.907,0.232 5.883,0.345 8.929,0.345 3.406,0 6.996,-0.113 10.765,-0.345 l 0,4.166 c -2.514,0.134 -4.061,0.398 -4.64,0.795 -0.58,0.396 -2.39,2.943 -5.431,7.641 -2.281,3.569 -6.276,10.507 -11.972,20.806 l -3.286,5.943 15.408,20.132 c 2.28,2.944 3.868,4.665 4.764,5.161 0.335,0.201 0.962,0.381 1.858,0.529 1.143,-0.105 1.828,-0.21 2.033,-0.31 0.311,-0.15 0.528,-0.348 0.645,-0.594 0.234,-0.49 0.368,-1.85 0.393,-4.078 0.035,-3.684 0.046,-6.969 0.046,-9.855 0,-5.438 -0.07,-10.493 -0.205,-15.153 -0.058,-2.287 -0.269,-3.631 -0.627,-4.027 -0.357,-0.399 -1.248,-0.633 -2.666,-0.711 l -1.746,-0.111 0,-2.379 c 2.32,0.127 4.962,0.197 7.923,0.197 1.994,0 3.98,-0.07 5.973,-0.197 l 0,2.379 c -2.526,0.111 -3.979,0.361 -4.373,0.738 -0.387,0.374 -0.614,1.381 -0.672,3.004 -0.094,4.023 -0.145,11.355 -0.145,22.008 l 0,3.853 10.151,-20.162 c 2.463,-4.971 4.43,-9.08 5.897,-12.336 l 1.927,0 c 1.078,2.461 2.573,5.637 4.491,9.531 4.673,9.467 8.523,17.125 11.531,22.967 l 0,-17.107 c 0,-4.946 -0.049,-8.088 -0.143,-9.418 -0.099,-1.333 -0.322,-2.155 -0.662,-2.469 -0.34,-0.313 -1.195,-0.498 -2.566,-0.555 l -1.729,-0.054 0,-2.379 c 4.299,0.127 7.699,0.197 10.201,0.197 2.479,0 5.303,-0.07 8.469,-0.197 l 0,2.379 c -2.48,0.209 -3.85,0.388 -4.103,0.541 -0.252,0.146 -0.45,0.365 -0.586,0.65 -0.194,0.49 -0.323,2.605 -0.393,6.344 -0.07,3.737 -0.105,7.285 -0.105,10.65 0,6.666 0.07,11.188 0.205,13.566 0.099,1.456 0.31,2.327 0.644,2.61 0.334,0.281 1.78,0.498 4.338,0.65 l 0,0.057 1.274,0 c 2.451,-0.205 3.828,-0.364 4.126,-0.482 0.303,-0.127 0.504,-0.311 0.602,-0.555 0.211,-0.416 0.352,-2.004 0.412,-4.764 0.094,-3.871 0.143,-7.992 0.143,-12.359 0,-5.557 -0.125,-10.897 -0.379,-16.018 -0.957,-0.664 -1.973,-1.236 -3.049,-1.729 l 0,-1.472 c 4.078,0.15 7.215,0.217 9.396,0.197 l 4.745,-0.064 10.601,-0.133 c 1.559,0 3.268,0.063 5.123,0.197 C 1.748,-6.176 2.135,-2.76 2.576,0 L 0,0 z"
         style="fill:#89191c;fill-opacity:1;fill-rule:nonzero;stroke:none"
         id="path198" />
    </g>
  </g>
</svg>
